<svg xmlns="http://www.w3.org/2000/svg" width="4.449" height="7.811" viewBox="0 0 4.449 7.811">
  <path id="expand_more_FILL0_wght400_GRAD0_opsz48" d="M16.569,21.664a.5.5,0,0,1-.189-.034.524.524,0,0,1-.172-.12L12.8,18.1a.473.473,0,0,1-.129-.37.529.529,0,0,1,.146-.37.431.431,0,0,1,.37-.146.647.647,0,0,1,.353.163l3.027,3.027L19.6,17.382a.561.561,0,0,1,.37-.155.407.407,0,0,1,.37.155.379.379,0,0,1,.146.361.67.67,0,0,1-.163.378L16.93,21.509a.524.524,0,0,1-.172.12A.5.5,0,0,1,16.569,21.664Z" transform="translate(-17.215 20.485) rotate(-90)" fill="rgba(255,255,255,0.7)"/>
</svg>
