<svg xmlns="http://www.w3.org/2000/svg" width="28" height="41" viewBox="0 0 28 41">
  <path id="scroll" d="M24,44A13.831,13.831,0,0,1,10,30V17a13.526,13.526,0,0,1,4.05-9.95A13.526,13.526,0,0,1,24,3a13.526,13.526,0,0,1,9.95,4.05A13.526,13.526,0,0,1,38,17V30A13.831,13.831,0,0,1,24,44Zm1.5-27H35a10.869,10.869,0,0,0-2.65-7.2A10.4,10.4,0,0,0,25.5,6.1ZM13,17h9.5V6.1a10.4,10.4,0,0,0-6.85,3.7A10.869,10.869,0,0,0,13,17ZM24,41a10.6,10.6,0,0,0,7.775-3.225A10.6,10.6,0,0,0,35,30V20H13V30a10.6,10.6,0,0,0,3.225,7.775A10.6,10.6,0,0,0,24,41ZM24,20ZM25.5,17ZM22.5,17ZM24,20Z" transform="translate(-10 -3)" fill="#fff"/>
</svg>
