<svg xmlns="http://www.w3.org/2000/svg" width="27.836" height="38" viewBox="0 0 27.836 38">
  <path id="support_ico4_w" d="M24,26.85a4.73,4.73,0,0,1-3.6-1.55,5.291,5.291,0,0,1-1.45-3.75V9a4.787,4.787,0,0,1,1.475-3.55,5.132,5.132,0,0,1,7.15,0A4.787,4.787,0,0,1,29.05,9V21.55A5.291,5.291,0,0,1,27.6,25.3,4.73,4.73,0,0,1,24,26.85ZM24,15.45ZM24,42a1.454,1.454,0,0,1-1.5-1.5V35.2a13.919,13.919,0,0,1-8.375-3.925A13.125,13.125,0,0,1,10.1,23.15a1.245,1.245,0,0,1,.375-1.125,1.6,1.6,0,0,1,1.175-.475,1.3,1.3,0,0,1,.95.4,1.76,1.76,0,0,1,.5.95,10.467,10.467,0,0,0,3.65,6.725A10.752,10.752,0,0,0,24,32.3a10.752,10.752,0,0,0,7.25-2.675A10.467,10.467,0,0,0,34.9,22.9a1.694,1.694,0,0,1,.525-.95,1.382,1.382,0,0,1,.975-.4,1.515,1.515,0,0,1,1.15.475,1.275,1.275,0,0,1,.35,1.125,13.125,13.125,0,0,1-4.025,8.125A13.919,13.919,0,0,1,25.5,35.2v5.3A1.454,1.454,0,0,1,24,42Zm0-18.15a1.85,1.85,0,0,0,1.475-.675,2.422,2.422,0,0,0,.575-1.625V9a1.894,1.894,0,0,0-.6-1.425,2.116,2.116,0,0,0-2.9,0A1.894,1.894,0,0,0,21.95,9V21.55a2.422,2.422,0,0,0,.575,1.625A1.85,1.85,0,0,0,24,23.85Z" transform="translate(-10.082 -4)" fill="#fff"/>
</svg>
