<svg xmlns="http://www.w3.org/2000/svg" width="40.801" height="44" viewBox="0 0 40.801 44">
  <path id="support_ico2" d="M8.7,46a1.5,1.5,0,1,1,0-3H39.3a1.5,1.5,0,1,1,0,3Zm0-41A1.454,1.454,0,0,1,7.2,3.5,1.454,1.454,0,0,1,8.7,2H39.3a1.454,1.454,0,0,1,1.5,1.5A1.454,1.454,0,0,1,39.3,5ZM24,25.8a5.807,5.807,0,0,0,5.9-5.9A5.807,5.807,0,0,0,24,14a5.807,5.807,0,0,0-5.9,5.9A5.807,5.807,0,0,0,24,25.8ZM6.6,40a2.878,2.878,0,0,1-2.1-.9A2.878,2.878,0,0,1,3.6,37V11a2.831,2.831,0,0,1,.9-2.15A2.962,2.962,0,0,1,6.6,8H41.4a2.878,2.878,0,0,1,2.1.9,2.878,2.878,0,0,1,.9,2.1V37a3.076,3.076,0,0,1-3,3ZM11,37a16.361,16.361,0,0,1,6.05-4.725A16.828,16.828,0,0,1,24,30.7a17.234,17.234,0,0,1,6.975,1.575A15.4,15.4,0,0,1,37,37h4.4V11H6.6V37Zm4.7,0H32.4a12.058,12.058,0,0,0-3.625-2.4A11.9,11.9,0,0,0,24,33.7a11.545,11.545,0,0,0-4.725.9A12.246,12.246,0,0,0,15.7,37ZM24,22.8a2.712,2.712,0,0,1-2.025-.85,2.959,2.959,0,0,1,0-4.1,2.837,2.837,0,0,1,4.05,0,2.959,2.959,0,0,1,0,4.1A2.712,2.712,0,0,1,24,22.8ZM24,24Z" transform="translate(-3.6 -2)" fill="#3d3d3d"/>
</svg>
