<svg xmlns="http://www.w3.org/2000/svg" width="44" height="31.05" viewBox="0 0 44 31.05">
  <path id="support_ico1_w" d="M38,28a1.454,1.454,0,0,1-1.5-1.5v-5h-5a1.5,1.5,0,1,1,0-3h5v-5a1.5,1.5,0,1,1,3,0v5h5a1.5,1.5,0,1,1,0,3h-5v5A1.454,1.454,0,0,1,38,28ZM18,23.95a7.193,7.193,0,0,1-7.5-7.5A7.193,7.193,0,0,1,18,8.95a7.193,7.193,0,0,1,7.5,7.5,7.193,7.193,0,0,1-7.5,7.5ZM3.5,40A1.454,1.454,0,0,1,2,38.5V35.3a5.824,5.824,0,0,1,.9-3.175A5.477,5.477,0,0,1,5.4,30a38.318,38.318,0,0,1,6.675-2.325,26.342,26.342,0,0,1,11.85,0A37.031,37.031,0,0,1,30.55,30a6.013,6.013,0,0,1,2.525,2.15A5.587,5.587,0,0,1,34,35.3v3.2A1.454,1.454,0,0,1,32.5,40ZM5,37H31V35.3a3.112,3.112,0,0,0-.4-1.525A2.423,2.423,0,0,0,29.35,32.7a26.051,26.051,0,0,0-5.975-2.2A27.156,27.156,0,0,0,18,30a25.9,25.9,0,0,0-5.375.525A29.336,29.336,0,0,0,6.6,32.7a2.618,2.618,0,0,0-1.175,1.075A2.971,2.971,0,0,0,5,35.3ZM18,20.95a4.361,4.361,0,0,0,4.5-4.5,4.361,4.361,0,0,0-4.5-4.5,4.361,4.361,0,0,0-4.5,4.5,4.361,4.361,0,0,0,4.5,4.5ZM18,16.45ZM18,30Z" transform="translate(-2 -8.95)" fill="#fff"/>
</svg>
