<svg width="220" height="37" viewBox="0 0 220 37" fill="none" xmlns="http://www.w3.org/2000/svg">
<path d="M22.9294 9.93836C22.9811 9.16974 22.7446 8.46764 22.4047 7.80249C22.1608 7.31472 21.8134 6.89346 21.3922 6.5461C21.0966 6.30221 20.7566 6.11006 20.4092 5.94008C19.9288 5.71097 19.4189 5.63707 18.8942 5.59272C18.3325 5.54099 17.7782 5.6149 17.2535 5.79227C16.8396 5.9253 16.4479 6.11745 16.1005 6.39829C15.901 6.56088 15.7015 6.73087 15.5167 6.90824C15.4132 7.01171 15.3098 7.12256 15.2211 7.24081C14.9772 7.58078 14.7555 7.94291 14.5707 8.31983C14.3416 8.78543 14.2529 9.2806 14.1125 9.76838C14.0829 9.87184 14.0386 9.96792 13.9942 10.0566C13.8317 10.3818 13.5286 10.2931 13.3439 10.1157C13.2995 10.0714 13.2552 10.0197 13.2182 9.97531C13.063 9.76838 12.8561 9.75359 12.627 9.82011C12.4496 9.87184 12.2796 9.93097 12.1097 9.99748C11.7475 10.1453 11.5701 10.0344 11.3854 9.77577C11.3115 9.66491 11.2376 9.55405 11.1489 9.45058C10.9863 9.26582 10.7276 9.16974 10.4616 9.31016C10.3064 9.39146 10.1142 9.42102 9.93684 9.45058C9.66339 9.49493 9.37516 9.5171 9.10171 9.56144C8.89478 9.591 8.69523 9.56144 8.51047 9.46536C8.17789 9.29538 8.1705 8.89629 8.47352 8.68197C8.86521 8.40852 9.29386 8.21636 9.70774 7.99465C10.1881 7.74337 10.6389 7.46253 10.9567 7.01171C11.0528 6.87868 11.1193 6.73087 11.1932 6.59045C11.2967 6.39829 11.3854 6.19875 11.4962 6.01398C11.6736 5.73314 11.8584 5.45969 12.0505 5.19363C12.2796 4.87584 12.5605 4.595 12.8635 4.33633C13.1961 4.0481 13.573 3.80421 13.9351 3.55293C14.4303 3.21297 14.9846 2.98386 15.5315 2.73998C15.8345 2.60695 16.1449 2.49609 16.4553 2.37784C16.8174 2.23742 17.0613 1.97875 17.2239 1.6314C17.2978 1.47619 17.4087 1.32838 17.49 1.18057C17.6378 0.907123 17.8299 0.663235 18.0147 0.419347C18.1329 0.264146 18.2734 0.131116 18.4433 0.0572109C18.7094 -0.0536471 18.909 -0.0166945 18.9755 0.286318C19.0494 0.626282 19.1381 0.958856 19.175 1.29882C19.2194 1.66096 19.4337 1.86789 19.7145 2.03048C19.818 2.08961 19.9362 2.12656 20.0471 2.15612C20.3649 2.24481 20.6827 2.32611 20.9931 2.45175C21.4143 2.62912 21.8356 2.79171 22.2421 3.01343C22.8038 3.31644 23.3285 3.66379 23.8311 4.05549C24.2671 4.39546 24.6588 4.77976 25.0209 5.19363C25.4939 5.74053 25.893 6.34656 26.1886 7.0191C26.4843 7.68425 26.6764 8.37156 26.7577 9.08845C26.802 9.5171 26.8242 9.94575 26.802 10.3744C26.7725 10.9213 26.6764 11.4608 26.536 11.9929C26.403 12.4807 26.2034 12.9389 25.9965 13.3897C25.8191 13.7667 25.5752 14.1214 25.3387 14.4688C25.0948 14.8161 24.8362 15.1487 24.5627 15.4665C24.3484 15.7178 24.1045 15.9395 23.868 16.1686C23.6389 16.3903 23.4098 16.612 23.1659 16.8042C22.8333 17.0702 22.4712 17.3067 22.1386 17.5728C21.9686 17.7058 21.806 17.8536 21.6656 18.0236C21.4661 18.2601 21.4661 18.5409 21.5917 18.8144C21.806 19.3022 22.0721 19.7604 22.3751 20.189C22.5968 20.4994 22.8555 20.7951 23.129 21.0685C23.4763 21.4233 23.868 21.7189 24.2967 21.9702C24.8436 22.2953 25.4348 22.4653 26.0556 22.591C26.706 22.7166 27.3268 22.6205 27.9476 22.4505C28.4427 22.3175 28.8788 22.0736 29.2705 21.7632C29.8322 21.3272 30.2904 20.7951 30.6156 20.1595C30.7855 19.8269 30.926 19.4869 31.0294 19.1248C31.1551 18.6888 31.1994 18.2453 31.1994 17.7871C31.1994 17.3437 31.1255 16.9224 31.022 16.4938C30.8964 15.9912 30.6525 15.5478 30.3643 15.1339C30.1574 14.8383 29.8987 14.5722 29.6252 14.3283C29.374 14.0992 29.0783 13.9366 28.7901 13.7593C28.6127 13.6484 28.4058 13.5819 28.2062 13.5154C28.0363 13.4563 27.8589 13.4045 27.6741 13.3676C27.4894 13.3306 27.3859 13.2198 27.3489 13.0498C27.312 12.8872 27.3785 12.7615 27.5041 12.6581C27.7185 12.4955 27.7259 12.2812 27.652 12.0521C27.6372 12.0151 27.615 11.9781 27.6076 11.9338C27.5781 11.8303 27.5485 11.7269 27.5337 11.6234C27.5041 11.3795 27.5337 11.1578 27.7333 10.9656C27.8367 10.8622 27.9032 10.707 27.9698 10.5666C28.051 10.3892 28.0658 10.197 28.0067 10.0123C27.9993 9.97531 27.9845 9.94575 27.9771 9.9088C27.9106 9.6723 27.8219 9.45058 27.7776 9.1993C27.7259 8.86673 27.6446 8.54155 27.6593 8.20158C27.6593 8.14246 27.6372 8.07594 27.6372 8.01682C27.6298 7.92074 27.6298 7.83206 27.7259 7.77293C27.8146 7.7212 27.918 7.72859 28.0141 7.82467C28.1471 7.9503 28.2875 8.07594 28.391 8.22375C28.6423 8.57111 28.8714 8.93325 29.1153 9.29538C29.1818 9.39146 29.2631 9.48754 29.337 9.57622C29.3592 9.60578 29.3887 9.62057 29.4109 9.65013C29.6622 10.0492 30.0613 10.2635 30.4308 10.5148C30.8373 10.7957 31.2364 11.0839 31.6355 11.3721C32.0937 11.7047 32.5223 12.0816 32.914 12.4955C33.4092 13.0202 33.8378 13.5893 34.163 14.2397C34.4217 14.757 34.6582 15.2817 34.8503 15.8286C34.9095 16.006 34.9982 16.176 35.0721 16.3533C35.2125 16.6711 35.4564 16.8633 35.7594 17.0111C36.0328 17.1367 36.2989 17.2772 36.5723 17.4176C36.6462 17.4545 36.7128 17.5137 36.7719 17.5728C36.7941 17.595 36.8236 17.6245 36.831 17.6541C36.9271 17.9497 36.7941 18.1936 36.4984 18.2823C36.2324 18.3562 35.9737 18.4449 35.7003 18.4966C35.412 18.5557 35.2346 18.7405 35.1312 18.9844C34.976 19.3613 34.8577 19.753 34.7247 20.1373C34.636 20.3886 34.5252 20.6325 34.4365 20.8837C34.2887 21.3124 34.0596 21.6967 33.8378 22.0884C33.5939 22.5171 33.2983 22.9161 32.9805 23.2931C32.2784 24.1208 31.4359 24.7712 30.4751 25.2663C30.3052 25.355 30.1278 25.4215 29.9504 25.488C29.6917 25.5841 29.4405 25.6876 29.1744 25.7615C28.6571 25.9019 28.125 25.9758 27.5928 26.0202C27.3563 26.0349 27.1124 26.0497 26.876 26.0497C26.3364 26.0497 25.8117 25.9832 25.2796 25.8871C24.5849 25.7689 23.9345 25.525 23.3063 25.2146C22.9516 25.0372 22.5894 24.8451 22.2569 24.6307C21.976 24.446 21.7247 24.2169 21.4661 24.0026C21.2148 23.7882 20.9561 23.5813 20.7344 23.3448C20.4462 23.0418 20.1875 22.7166 19.9288 22.3914C19.7736 22.1993 19.648 21.9849 19.4928 21.8002C19.2933 21.5563 19.0789 21.3346 18.7538 21.2681C18.5468 21.2311 18.3621 21.2681 18.1921 21.3715C18.0812 21.438 17.9777 21.5046 17.8743 21.5785C17.3348 21.9628 16.7953 22.3471 16.3223 22.8127C15.8197 23.3005 15.3911 23.8547 15.1102 24.5051C14.8294 25.1555 14.6668 25.8354 14.6594 26.5523C14.652 26.9809 14.6668 27.3948 14.785 27.8087C14.8959 28.193 15.0733 28.5551 15.2654 28.9099C15.428 29.2129 15.6571 29.4642 15.8862 29.708C16.3001 30.1515 16.8027 30.4841 17.3717 30.691C18.1329 30.9718 18.9311 31.0827 19.7441 30.9201C20.2023 30.8314 20.6309 30.6614 21.03 30.4101C21.4735 30.1293 21.8578 29.7893 22.2051 29.3976C22.4712 29.0946 22.7003 28.7621 22.8998 28.4147C23.1511 27.9787 23.3654 27.5131 23.4911 27.0179C23.5206 26.8923 23.5576 26.774 23.6019 26.6558C23.698 26.3823 24.001 26.3232 24.1858 26.5449C24.3114 26.6927 24.4297 26.8553 24.5405 27.0179C24.7179 27.2692 24.9175 27.3283 25.1983 27.1805C25.3461 27.1066 25.4939 27.0327 25.6713 27.0327C25.8634 27.0253 26.0113 27.0918 26.1443 27.2174C26.2625 27.3283 26.3734 27.4465 26.4843 27.5648C26.5951 27.6904 26.7207 27.7274 26.8833 27.7052C27.2455 27.6609 27.5633 27.4761 27.9032 27.3652C28.1323 27.2913 28.3541 27.2027 28.6053 27.2174C28.6423 27.2174 28.6792 27.2174 28.7088 27.2248C28.9083 27.2692 28.9675 27.417 28.8344 27.5648C28.694 27.72 28.5314 27.853 28.3688 27.9934C28.1102 28.2152 27.8441 28.4369 27.5854 28.6586C27.5115 28.7251 27.4302 28.7768 27.3637 28.8507C27.2529 28.9616 27.142 29.0872 27.0312 29.2055C26.7873 29.4642 26.5877 29.7598 26.403 30.0776C26.233 30.3658 26.026 30.6393 25.8265 30.9127C25.6196 31.1935 25.4126 31.467 25.1983 31.7331C24.814 32.1913 24.3632 32.5904 23.8828 32.9525C23.4763 33.2555 23.0255 33.492 22.5821 33.7211C22.4934 33.7655 22.3973 33.795 22.3086 33.8246C21.8652 33.9724 21.4143 34.1128 20.9709 34.2754C20.6088 34.4084 20.3132 34.6154 20.1727 34.9997C20.0323 35.3766 19.818 35.7166 19.5889 36.0491C19.4928 36.1969 19.3376 36.3152 19.1824 36.4187C19.0124 36.5369 18.8055 36.4704 18.739 36.2708C18.6798 36.1009 18.6429 35.9161 18.6207 35.7387C18.5986 35.4874 18.5542 35.2509 18.436 35.0292C18.3251 34.8149 18.1477 34.6671 17.9556 34.5341C17.6821 34.3493 17.3643 34.2754 17.0465 34.2163C16.7435 34.1645 16.4479 34.0832 16.1597 33.9502C15.9232 33.8394 15.6719 33.7581 15.4354 33.6472C15.1841 33.5216 14.9328 33.3885 14.6963 33.2407C14.1568 32.9155 13.6838 32.5091 13.2182 32.0804C13.0261 31.903 12.8635 31.6813 12.6935 31.4818C12.5309 31.2896 12.3683 31.0975 12.2279 30.8905C11.984 30.5284 11.7697 30.1515 11.5701 29.7598C11.3706 29.3607 11.2302 28.9468 11.1045 28.5182C11.038 28.2743 10.9493 28.0304 10.905 27.7865C10.8533 27.5131 10.8237 27.2322 10.8089 26.9514C10.7868 26.604 10.7646 26.2567 10.7794 25.9167C10.8089 25.3994 10.8163 24.8746 10.9937 24.3721C11.1341 23.9804 11.2228 23.5739 11.4297 23.2044C11.6514 22.7905 11.8879 22.384 12.1836 22.0071C12.664 21.3863 13.2256 20.8468 13.8169 20.3295C14.046 20.1299 14.2899 19.9451 14.5116 19.7456C14.8589 19.4352 15.2063 19.1248 15.5315 18.7996C15.6941 18.637 15.7975 18.4375 15.7754 18.1936C15.768 18.1271 15.768 18.068 15.7754 18.0014C15.8197 17.6689 15.6645 17.4102 15.465 17.1737C15.2285 16.8855 14.9698 16.612 14.7481 16.3164C14.3933 15.836 13.9647 15.4295 13.5213 15.0526C13.2035 14.7866 12.8561 14.5648 12.4792 14.3727C11.8066 14.0327 11.0898 13.9514 10.3581 13.9958C9.85555 14.0253 9.37516 14.1436 8.91695 14.3653C8.38483 14.6166 7.92662 14.9491 7.53492 15.3778C7.16539 15.7843 6.87716 16.2499 6.67761 16.7746C6.54459 17.1441 6.41156 17.5063 6.3746 17.8906C6.33026 18.2527 6.30809 18.6149 6.33026 18.9844C6.35982 19.3613 6.3746 19.7456 6.46329 20.1151C6.64066 20.8616 6.92889 21.5415 7.49796 22.0884C7.69012 22.2732 7.90444 22.4136 8.12616 22.554C8.55481 22.8275 9.04259 22.9383 9.52297 23.0713C9.55992 23.0787 9.58949 23.0861 9.62644 23.1009C9.95901 23.1896 10.0403 23.4409 9.82598 23.7069C9.5821 24.0099 9.57471 24.143 9.75947 24.4903C9.93684 24.8155 9.9664 25.1407 9.78164 25.4807C9.71512 25.5989 9.656 25.7172 9.60427 25.8428C9.47863 26.1384 9.53775 26.4193 9.64861 26.7001C9.70774 26.8479 9.7373 27.0105 9.77425 27.1657C9.79642 27.247 9.79642 27.3357 9.83337 27.4096C9.98858 27.7643 9.98858 28.1339 9.99597 28.5108C9.99597 28.5699 9.9664 28.6734 9.92945 28.6882C9.85555 28.7103 9.75208 28.7103 9.69295 28.666C9.56731 28.5699 9.44168 28.4517 9.36038 28.3186C9.07954 27.8678 8.76175 27.4465 8.39961 27.0696C8.14833 26.8036 7.8601 26.5745 7.57926 26.3454C7.26147 26.0867 6.92889 25.8502 6.6111 25.5989C6.26374 25.3255 5.91639 25.0446 5.59121 24.749C5.29558 24.4829 5.02213 24.1873 4.74868 23.8917C4.29786 23.4113 3.94312 22.8644 3.6401 22.2806C3.53664 22.0884 3.44056 21.8889 3.34448 21.6967C3.24841 21.5046 3.1745 21.2976 3.06364 21.1055C2.90844 20.8246 2.81236 20.5216 2.70151 20.226C2.6276 20.0264 2.53891 19.8343 2.42806 19.6495C2.38371 19.5682 2.29503 19.5017 2.20634 19.4648C1.83681 19.28 1.44511 19.1248 1.08298 18.9326C0.728232 18.7479 0.373487 18.5557 0.151771 18.1936C0.0556935 18.031 -0.0182124 17.8684 0.00395921 17.6763C0.0113497 17.5654 0.00395921 17.4471 0.00395921 17.3363C0.0113497 17.218 0.0556933 17.1663 0.173942 17.1663C0.262628 17.1663 0.366096 17.1589 0.447392 17.1959C0.942558 17.4102 1.46729 17.4028 1.98462 17.388C2.18417 17.3806 2.34676 17.2772 2.47979 17.1367C2.65716 16.9446 2.75324 16.7155 2.82714 16.4716C2.90105 16.2203 2.97496 15.969 3.08581 15.7325C3.29275 15.2669 3.52185 14.8161 3.82487 14.4096C4.01702 14.151 4.19439 13.8775 4.40872 13.641C4.62305 13.3897 4.88171 13.1828 5.10343 12.9389C5.31036 12.7098 5.54686 12.5324 5.79814 12.3551C6.02725 12.1925 6.25635 12.0299 6.49285 11.8747C6.90672 11.6086 7.36493 11.4239 7.82315 11.2317C8.22224 11.0691 8.6435 10.9878 9.06476 10.9065C9.35299 10.8474 9.64861 10.7957 9.93684 10.7735C10.5059 10.7218 11.075 10.7144 11.6441 10.8104C12.2057 10.9065 12.7674 10.9878 13.3069 11.1874C13.9056 11.4091 14.4894 11.653 15.0141 12.0077C15.3689 12.2516 15.731 12.4807 16.0636 12.7468C16.3444 12.9685 16.5957 13.2271 16.847 13.4784C17.1943 13.8258 17.5121 14.2027 17.8004 14.6092C17.9408 14.8087 18.0886 15.0083 18.2364 15.2004C18.5764 15.6512 19.2489 15.6956 19.6406 15.2743C19.9141 14.9787 20.2319 14.7348 20.5201 14.454C20.727 14.2544 20.9266 14.0475 21.1187 13.8332C21.3404 13.5967 21.5548 13.3528 21.7543 13.1015C21.9317 12.8798 22.0795 12.6433 22.2347 12.4142C22.316 12.2886 22.4047 12.1703 22.4712 12.0373C22.7668 11.3573 22.9664 10.67 22.9294 9.93836Z" fill="white"/>
<path d="M89.6144 10.3521C89.4074 10.2708 89.2005 10.123 88.9862 10.1156C87.5968 10.0565 86.2073 10.0122 84.8844 10.6034C83.9606 11.0173 82.9777 11.1577 81.9799 11.1208C80.1914 11.0542 79.0607 9.02185 79.9549 7.46983C80.5536 6.42777 81.4626 5.88087 82.682 5.86609C84.3523 5.8513 86.03 5.94738 87.6854 5.76262C90.5825 5.43743 93.4722 5.71827 96.3619 5.6222C97.271 5.59264 98.18 5.42265 99.0816 5.43004C100.264 5.43743 101.454 5.51134 102.636 5.63698C104.248 5.80696 105.829 6.13215 107.359 6.74556C108.335 7.13726 108.859 8.1202 107.825 9.16966C106.849 10.1452 105.704 10.5591 104.366 10.3743C103.353 10.2339 102.348 9.96783 101.336 9.79785C100.286 9.62787 99.2221 9.50223 98.1652 9.37659C97.9731 9.35442 97.7218 9.33964 97.5888 9.44311C97.3892 9.59092 97.1823 9.82741 97.1453 10.0491C97.1231 10.1822 97.404 10.4482 97.5961 10.5C97.8918 10.5886 98.2243 10.5369 98.5421 10.5665C99.1334 10.6256 99.732 10.6404 100.301 10.7808C101.424 11.0542 101.897 11.6455 102.008 12.7762C102.053 13.2123 102.075 13.6483 102.09 14.0844C102.149 17.0997 102.208 20.115 102.252 23.1304C102.282 24.8745 101.624 26.4783 101.048 28.0673C100.575 29.368 98.9486 29.9223 97.8918 29.1315C96.4211 28.0229 94.8321 28.2668 93.2209 28.3851C92.7849 28.4146 92.3563 28.555 91.9276 28.5403C91.0703 28.5107 90.2795 28.7028 89.5035 29.0354C89.0305 29.235 88.5354 29.3976 88.0402 29.538C86.806 29.8927 86.163 29.6193 85.6604 28.4368C85.047 26.9956 84.8253 25.4584 84.8623 23.899C84.9066 22.0366 85.0396 20.1816 85.0692 18.3191C85.084 17.3732 84.9879 16.4198 84.8918 15.4812C84.7292 13.8405 85.8378 12.0446 87.412 11.4977C87.8628 11.3425 88.321 11.2316 88.7718 11.0764C89.0822 10.9656 89.3779 10.8104 89.6809 10.6773C89.6439 10.5665 89.6292 10.4556 89.6144 10.3521ZM93.6274 19.4056C94.3739 19.8268 95.1868 20.1594 95.8298 20.6841C96.9014 21.5636 96.591 22.3765 95.6229 22.99C94.0043 24.0099 92.2232 23.8547 90.4495 23.426C90.4125 23.4186 90.3756 23.3964 90.346 23.3743C89.8361 22.9456 89.1783 22.5687 89.1709 21.8296C89.1635 21.0832 89.7031 20.6324 90.346 20.3146C90.5604 20.2037 90.7599 20.0559 90.9668 19.9229C90.6786 19.8046 90.4495 19.849 90.2278 19.8638C89.9469 19.8785 89.6735 19.8564 89.3927 19.8859C88.6388 19.9525 88.2249 20.4107 88.2915 21.1423C88.3654 21.9257 88.4762 22.7091 88.624 23.4851C88.831 24.6011 88.8975 24.675 90.0208 24.6381C91.3659 24.6011 92.711 24.4681 94.0561 24.4163C94.7286 24.3942 95.4012 24.4755 96.0811 24.4829C97.0345 24.4902 97.2783 24.4089 97.4557 23.5221C97.6627 22.4874 97.6627 21.4084 97.7366 20.3515C97.7809 19.6938 97.3966 19.4129 96.7832 19.4056C95.7042 19.3982 94.6473 19.4056 93.6274 19.4056ZM97.7661 14.8678C97.5962 14.7421 97.3227 14.38 97.0345 14.3726C96.6206 14.3578 96.3472 14.7199 96.3693 15.1856C96.3915 15.629 96.5984 15.9542 97.0566 16.0133C97.4114 16.0576 97.7957 15.5329 97.7661 14.8678ZM89.5257 15.2521C89.0305 15.1708 88.5649 15.0451 88.5132 15.6881C88.4984 15.8729 88.7275 16.235 88.8827 16.2498C89.5552 16.3459 89.6365 15.9024 89.5257 15.2521ZM93.3762 14.8678C93.3022 14.7939 93.1323 14.4687 92.9179 14.4391C92.4819 14.38 92.4154 14.7865 92.4745 15.0969C92.5262 15.3629 92.6888 15.7916 92.8588 15.8137C93.3392 15.895 93.3909 15.4886 93.3762 14.8678ZM93.96 10.0417C93.5757 9.78307 93.2949 9.48745 93.1914 9.53918C92.9253 9.6796 92.7332 9.97522 92.5115 10.2043C92.711 10.3448 92.9327 10.6108 93.1101 10.5886C93.354 10.5591 93.5683 10.3078 93.96 10.0417Z" fill="white"/>
<path d="M199.12 22.0366C198.425 21.9406 197.893 21.8667 197.213 21.7706C197.147 22.7683 197.065 23.6626 197.043 24.5568C197.028 25.5102 197.095 26.4636 197.087 27.4169C197.08 27.8899 197.043 28.3703 196.925 28.8285C196.696 29.6858 196.289 29.9815 195.498 29.9815C194.855 29.9815 194.176 29.5159 193.991 28.8581C193.865 28.4073 193.821 27.9195 193.784 27.4465C193.688 26.264 193.621 25.0741 193.518 23.8917C193.496 23.6773 193.37 23.4704 193.267 23.1896C192.439 23.6699 192.04 24.4016 191.648 25.1111C191.035 26.2271 190.133 27.0326 189.098 27.72C188.936 27.8308 188.758 27.9712 188.574 27.986C188.278 28.0156 187.864 28.0599 187.694 27.8973C187.524 27.7347 187.458 27.2691 187.568 27.04C187.975 26.1827 188.381 25.3033 188.958 24.5642C190.414 22.7092 191.596 20.6916 192.727 18.6444C192.838 18.4374 192.934 18.2157 193 17.9866C193.037 17.8462 193.008 17.6836 193.008 17.4249C192.402 17.4249 191.825 17.4249 191.256 17.4249C190.746 17.4249 190.222 17.4693 189.726 17.3954C189.083 17.2919 188.44 17.0554 188.33 16.3016C188.204 15.4517 188.285 14.6091 189.069 14.0475C190 13.3823 191.049 13.0571 192.187 13.0424C192.823 13.035 193.466 13.0719 194.094 13.035C194.959 12.9832 195.824 12.8872 196.688 12.8059C197.679 12.7098 198.662 12.5989 199.622 13.0128C200.458 13.3749 200.731 13.907 200.288 14.6978C199.94 15.3112 199.46 15.8581 198.987 16.3903C198.307 17.1515 198.329 17.5136 199.157 18.0901C199.482 18.3192 199.77 18.5926 200.103 18.807C200.812 19.2726 201.226 19.9082 201.234 20.795C202.505 21.1202 203.635 20.7655 204.759 20.3812C205.202 20.226 205.476 19.3169 205.32 18.8291C205.158 18.3118 204.774 18.1049 204.101 18.1788C203.746 18.2157 203.392 18.2822 203.037 18.2896C202.091 18.3044 201.625 17.9497 201.389 17.0776C201.137 16.139 201.33 15.4369 202.106 15.0674C202.919 14.6831 203.791 14.38 204.655 14.1509C205.468 13.9366 205.66 13.8405 205.697 12.998C205.727 12.3255 205.749 11.6308 205.609 10.9804C205.394 9.95311 205.934 9.32491 206.592 8.72628C206.791 8.54152 207.05 8.40849 207.294 8.28285C208.432 7.6916 209.09 7.9281 209.511 9.12537C209.807 9.98267 209.999 10.8769 209.725 11.7934C209.637 12.0964 209.555 12.4142 209.54 12.7246C209.489 13.6336 209.829 13.9662 210.73 13.9144C211.085 13.8923 211.44 13.8258 211.787 13.7592C213.081 13.508 214.61 14.9565 214.285 16.6342C214.152 17.3215 213.657 17.6688 213.073 17.8093C212.194 18.0162 211.285 18.0975 210.383 18.2157C210.073 18.2601 209.755 18.2749 209.378 18.3044C209.267 18.6518 209.119 18.977 209.075 19.3169C208.994 20.0634 209.311 20.4107 210.08 20.4403C212.26 20.529 214.44 20.5881 216.621 20.6916C218.003 20.7507 219 21.5045 219.725 22.6131C220.175 23.3004 220.057 23.8621 219.481 24.4312C218.402 25.5028 217.079 25.5841 215.712 25.2441C213.738 24.749 211.75 24.3942 209.71 24.5272C208.491 24.6085 207.286 24.9189 206.074 24.9633C204.397 25.0224 202.763 25.2959 201.16 25.7615C200.502 25.9536 199.844 26.1753 199.282 25.5471C198.632 24.8155 198.329 23.9951 198.676 23.027C198.772 22.7535 198.905 22.5096 199.12 22.0366Z" fill="white"/>
<path d="M120.935 13.7667C120.44 13.9145 120.115 14.018 119.775 14.1066C118.792 14.3801 117.765 13.8849 117.432 12.9833C117.04 11.8969 117.462 10.8252 118.496 10.4262C119.797 9.93099 121.157 9.65015 122.554 9.65754C122.872 9.65754 123.189 9.67971 123.507 9.63537C124.823 9.46538 124.867 9.36192 124.941 8.03901C125 6.98216 125.54 6.06574 126.205 5.28973C126.825 4.57285 128.06 4.765 128.555 5.62969C128.902 6.23572 129.139 6.93043 129.294 7.61036C129.663 9.20671 129.878 9.41365 131.548 9.31757C132.139 9.28062 132.731 9.2141 133.314 9.1402C134.319 9.00717 135.214 9.33974 136.034 9.83491C137.283 10.5887 137.239 12.0299 135.997 12.7837C135.206 13.2641 134.342 13.2937 133.462 13.2419C131.873 13.1459 131.748 13.1902 131.097 14.6314C130.018 17.0111 130.136 17.1146 131.866 18.7479C134.312 21.039 137.061 22.9162 140.062 24.4091C140.845 24.8007 141.629 25.1924 142.346 25.6876C143.535 26.508 143.351 27.9935 142.028 28.6143C141.917 28.666 141.814 28.7325 141.703 28.7547C139.811 29.0873 137.919 29.1094 136.034 28.7103C135.724 28.6438 135.369 28.3778 135.192 28.1043C133.736 25.8576 131.652 24.1504 130.04 22.0441C129.782 21.7041 129.434 21.4159 129.102 21.1424C128.259 20.4551 127.823 20.4921 127.114 21.3715C125.761 23.0492 124.239 24.5495 122.472 25.7837C120.795 26.9588 118.962 27.7865 116.856 27.8383C116.582 27.8457 116.287 27.8383 116.035 27.7496C115.4 27.5279 114.712 27.3283 114.661 26.471C114.609 25.6063 114.69 24.786 115.562 24.3056C116.405 23.8474 117.27 23.4631 118.275 23.5444C119.272 23.6257 120.152 23.3079 120.935 22.6944C122.036 21.8445 123.16 21.0316 124.239 20.1595C124.734 19.7604 125.163 19.2209 125.03 18.5262C124.897 17.8389 124.379 17.4693 123.692 17.3289C123.263 17.2402 122.849 17.122 122.421 17.0185C121.083 16.7155 120.255 15.9173 120.832 14.5722C120.913 14.3949 120.891 14.1805 120.935 13.7667ZM125.251 13.5376C125.68 14.4983 126.33 14.7053 126.981 14.8235C127.402 14.9048 127.823 14.4688 127.86 14.0253C127.912 13.4932 127.535 13.2863 127.129 13.2937C126.559 13.3011 125.99 13.4415 125.251 13.5376Z" fill="white"/>
<path d="M64.5086 22.8792C66.7035 22.7018 68.5586 22.5171 70.4136 22.421C71.1896 22.3766 72.0026 22.4062 72.7638 22.5762C73.9611 22.8496 74.4414 23.8621 73.8724 24.9559C73.0298 26.5819 71.7882 27.8309 70.0589 28.533C69.948 28.5773 69.815 28.5625 69.7189 28.6216C68.3147 29.5159 66.8514 29.3164 65.3659 28.8655C63.969 28.4443 62.5501 28.0747 61.1533 27.6535C59.7195 27.2174 58.2931 26.7445 56.8667 26.301C56.1499 26.0793 55.433 25.8428 54.7013 25.658C51.8338 24.9338 50.1118 22.3323 50.703 19.4574C50.9987 18.031 51.4495 16.6268 51.8338 15.2152C51.8929 14.9861 51.9668 14.757 52.0112 14.5205C52.159 13.8036 51.8707 13.4637 51.1539 13.508C50.9174 13.5228 50.6956 13.6189 50.4591 13.6632C49.3062 13.8554 48.3455 13.4489 47.7838 12.5324C47.3773 11.8599 47.4882 10.6257 48.1016 9.86447C49.0106 8.7411 50.134 8.00205 51.649 7.95771C53.4154 7.90597 55.1226 8.23855 56.8076 8.6672C58.4409 9.08846 58.9361 10.8178 57.8349 12.126C56.8815 13.2567 56.002 14.4244 55.5143 15.836C55.2408 16.6194 55.0117 17.4176 54.8343 18.2306C54.5757 19.413 55.7729 20.7212 56.8667 21.135C57.9014 21.5267 58.973 21.8519 60.0521 22.081C61.6262 22.4358 63.23 22.6575 64.5086 22.8792Z" fill="white"/>
<path d="M174.295 26.2196C173.393 25.9388 172.477 25.7023 171.598 25.3623C170.304 24.8671 169.033 24.3202 167.769 23.7586C165.959 22.9604 164.355 21.8888 163.505 20.0116C163.328 19.6272 163.254 19.1764 163.224 18.7478C163.098 16.7302 163.106 14.6978 162.847 12.6949C162.699 11.542 163.098 10.6847 163.645 9.82001C164.473 8.51188 165.419 8.43798 166.498 9.58351C166.772 9.87174 166.993 10.2043 167.2 10.5443C167.525 11.069 167.969 11.2981 168.59 11.2907C169.624 11.2759 170.652 11.3203 171.686 11.3277C172.957 11.3351 173.962 12.0667 174.147 13.131C174.31 14.0474 173.985 14.6978 173.076 14.9712C172.174 15.2447 171.228 15.3777 170.297 15.5772C169.41 15.762 168.479 15.8359 167.651 16.1611C166.616 16.5676 166.513 17.314 167.304 18.1122C167.806 18.6147 168.368 19.0803 168.974 19.4425C170.297 20.2333 171.605 20.9502 173.29 20.8763C174.812 20.8097 176.357 21.1571 177.894 21.3492C178.242 21.3936 178.589 21.534 178.892 21.7114C179.845 22.2435 179.971 23.1895 179.202 23.9877C177.879 25.3697 176.291 26.1531 174.295 26.2196Z" fill="white"/>
<path d="M158.051 8.05359C159.056 8.17184 159.913 8.54875 160.408 9.46518C160.903 10.389 160.541 11.2241 160.009 12.0149C159.965 12.0814 159.913 12.1553 159.846 12.1849C157.807 13.2122 158.065 15.2076 157.991 16.9518C157.873 19.8341 157.962 22.7164 158.324 25.5913C158.427 26.3969 158.257 27.2542 158.087 28.0598C158.006 28.4515 157.674 28.8284 157.371 29.1166C156.868 29.597 156.336 29.5379 155.789 29.0723C155.257 28.6288 155.065 28.045 155.028 27.3946C154.887 24.7045 154.777 22.0143 154.607 19.3315C154.525 18.1121 154.37 16.8927 154.163 15.6954C153.993 14.7051 153.912 14.7272 152.921 14.6164C152.419 14.5573 151.902 14.4538 151.436 14.2542C150.505 13.8552 149.914 12.8944 150.017 11.9854C150.135 10.9507 150.483 10.1008 151.665 9.78297C153.114 9.39867 154.525 8.85177 155.966 8.43051C156.646 8.23096 157.363 8.17184 158.051 8.05359Z" fill="white"/>
<path d="M195.757 7.7877C196.844 7.70641 197.767 7.99464 198.617 8.84455C199.349 9.57621 199.186 10.8917 198.314 11.2465C196.6 11.9338 194.811 12.2885 192.978 11.7712C192.136 11.5347 191.737 10.8104 191.796 9.91618C191.855 9.0441 192.609 8.16462 193.481 7.97986C193.902 7.89117 194.338 7.83205 194.774 7.7877C195.092 7.76553 195.41 7.7877 195.757 7.7877Z" fill="white"/>
</svg>
