<svg width="24" height="24" viewBox="0 0 24 24" fill="none" xmlns="http://www.w3.org/2000/svg">
<path d="M7.35243 0.25C6.15878 0.302083 5.34608 0.497396 4.63497 0.783854C3.91116 1.08333 3.28894 1.47396 2.66672 2.11198C2.04449 2.75 1.66354 3.38802 1.38418 4.14323C1.10481 4.8724 0.927033 5.70573 0.863541 6.92969C0.812747 8.15365 0.800049 8.54427 0.800049 11.6563C0.812747 14.7682 0.825446 15.1589 0.876239 16.3828C0.927033 17.6068 1.11751 18.4401 1.39687 19.1563C1.68894 19.9115 2.06989 20.5495 2.69211 21.1875C3.31433 21.8255 3.93656 22.2161 4.67306 22.5026C5.38418 22.7891 6.19687 22.9714 7.39052 23.0365C8.58418 23.0885 8.96513 23.1016 12 23.1016C15.035 23.0885 15.4159 23.0885 16.6096 23.0234C17.8032 22.9714 18.6159 22.776 19.327 22.4896C20.0635 22.1901 20.6858 21.7995 21.308 21.1615C21.9302 20.5234 22.3112 19.8854 22.5905 19.1302C22.8699 18.401 23.0477 17.5677 23.1112 16.3438C23.162 15.1198 23.1747 14.7292 23.1747 11.6172C23.162 8.50521 23.162 8.11458 23.0985 6.89063C23.0477 5.66667 22.8572 4.83333 22.5778 4.10417C22.2858 3.34896 21.9048 2.71094 21.2826 2.07292C20.6604 1.4349 20.0381 1.04427 19.3016 0.757813C18.5905 0.471354 17.7778 0.289062 16.5842 0.223958C15.3778 0.184896 14.9969 0.171875 11.962 0.171875C8.92703 0.184896 8.54608 0.197917 7.35243 0.25ZM7.47941 20.9661C6.38735 20.9141 5.80322 20.7318 5.40957 20.5755C4.88894 20.3672 4.52068 20.1198 4.12703 19.7161C3.73338 19.3125 3.49211 18.9349 3.28894 18.401C3.13656 17.9974 2.94608 17.3854 2.89529 16.2786C2.84449 15.0677 2.83179 14.7031 2.8191 11.6432C2.8191 8.58333 2.8191 8.21875 2.86989 7.00781C2.92068 5.88802 3.09846 5.28906 3.25084 4.88542C3.45402 4.35156 3.69529 3.97396 4.08894 3.57031C4.48259 3.16667 4.85084 2.91927 5.37148 2.71094C5.76513 2.55469 6.36195 2.3724 7.44132 2.30729C8.62227 2.25521 8.97783 2.24219 11.9493 2.22917C14.9334 2.22917 15.2889 2.22917 16.4699 2.28125C17.562 2.33333 18.1461 2.51563 18.5397 2.67188C19.0604 2.88021 19.4413 3.1276 19.8223 3.53125C20.2159 3.9349 20.4572 4.3125 20.6604 4.84635C20.8127 5.25 20.9905 5.86198 21.054 6.96875C21.1048 8.17969 21.1175 8.54427 21.1302 11.5911C21.1429 14.651 21.1302 15.0156 21.0794 16.2266C21.0286 17.3464 20.8508 17.9453 20.6985 18.362C20.4953 18.8958 20.254 19.2734 19.8604 19.6771C19.4667 20.0807 19.0985 20.3281 18.5778 20.5365C18.1842 20.6927 17.5873 20.875 16.508 20.9401C15.327 20.9922 14.9715 21.0052 11.9873 21.0182C9.01592 21.0313 8.66037 21.0182 7.47941 20.9661ZM16.5969 5.51042C16.5969 6.26563 17.2064 6.8776 17.9429 6.8776C18.6794 6.8776 19.2889 6.2526 19.2762 5.4974C19.2762 4.74219 18.6667 4.13021 17.9302 4.13021C17.1937 4.13021 16.5969 4.75521 16.5969 5.51042ZM6.24767 11.6432C6.24767 14.8984 8.82544 17.5156 12 17.5156C15.162 17.5026 17.727 14.8724 17.727 11.6172C17.7143 8.375 15.1493 5.73177 11.9747 5.74479C8.80005 5.75781 6.23497 8.40104 6.24767 11.6432ZM8.25402 11.6432C8.25402 9.53385 9.91751 7.82813 11.9747 7.8151C14.0318 7.8151 15.708 9.52083 15.708 11.6302C15.708 13.7396 14.0445 15.4583 11.9873 15.4583C9.93021 15.4583 8.26672 13.7526 8.25402 11.6432Z" fill="white" fill-opacity="0.8"/>
</svg>
