<svg width="19" height="19" viewBox="0 0 19 19" fill="none" xmlns="http://www.w3.org/2000/svg">
<path d="M2.35625 18.5C1.83125 18.5 1.39062 18.3219 1.03437 17.9656C0.678125 17.6094 0.5 17.1688 0.5 16.6438C0.5 16.1188 0.678125 15.6781 1.03437 15.3219C1.39062 14.9656 1.83125 14.7875 2.35625 14.7875C2.88125 14.7875 3.32187 14.9656 3.67812 15.3219C4.03437 15.6781 4.2125 16.1188 4.2125 16.6438C4.2125 17.1688 4.03437 17.6094 3.67812 17.9656C3.32187 18.3219 2.88125 18.5 2.35625 18.5ZM2.35625 11.3562C1.83125 11.3562 1.39062 11.1781 1.03437 10.8219C0.678125 10.4656 0.5 10.025 0.5 9.5C0.5 8.975 0.678125 8.53437 1.03437 8.17812C1.39062 7.82187 1.83125 7.64375 2.35625 7.64375C2.88125 7.64375 3.32187 7.82187 3.67812 8.17812C4.03437 8.53437 4.2125 8.975 4.2125 9.5C4.2125 10.025 4.03437 10.4656 3.67812 10.8219C3.32187 11.1781 2.88125 11.3562 2.35625 11.3562ZM2.35625 4.2125C1.83125 4.2125 1.39062 4.03437 1.03437 3.67812C0.678125 3.32187 0.5 2.88125 0.5 2.35625C0.5 1.83125 0.678125 1.39062 1.03437 1.03437C1.39062 0.678125 1.83125 0.5 2.35625 0.5C2.88125 0.5 3.32187 0.678125 3.67812 1.03437C4.03437 1.39062 4.2125 1.83125 4.2125 2.35625C4.2125 2.88125 4.03437 3.32187 3.67812 3.67812C3.32187 4.03437 2.88125 4.2125 2.35625 4.2125ZM9.5 11.3562C8.975 11.3562 8.53437 11.1781 8.17812 10.8219C7.82187 10.4656 7.64375 10.025 7.64375 9.5C7.64375 8.975 7.82187 8.53437 8.17812 8.17812C8.53437 7.82187 8.975 7.64375 9.5 7.64375C10.025 7.64375 10.4656 7.82187 10.8219 8.17812C11.1781 8.53437 11.3562 8.975 11.3562 9.5L9.5 11.3562ZM9.5 4.2125C8.975 4.2125 8.53437 4.03437 8.17812 3.67812C7.82187 3.32187 7.64375 2.88125 7.64375 2.35625C7.64375 1.83125 7.82187 1.39062 8.17812 1.03437C8.53437 0.678125 8.975 0.5 9.5 0.5C10.025 0.5 10.4656 0.678125 10.8219 1.03437C11.1781 1.39062 11.3562 1.83125 11.3562 2.35625C11.3562 2.88125 11.1781 3.32187 10.8219 3.67812C10.4656 4.03437 10.025 4.2125 9.5 4.2125ZM8.79688 18.5C8.68437 18.5 8.58594 18.4578 8.50156 18.3734C8.41719 18.2891 8.375 18.1906 8.375 18.0781V16.8406C8.375 16.8031 8.4125 16.7094 8.4875 16.5594L15.2094 9.8375L17.0375 11.6656L10.3156 18.3875C10.2781 18.425 10.1844 18.4625 10.0344 18.5H8.79688ZM16.6438 4.2125C16.1188 4.2125 15.6781 4.03437 15.3219 3.67812C14.9656 3.32187 14.7875 2.88125 14.7875 2.35625C14.7875 1.83125 14.9656 1.39062 15.3219 1.03437C15.6781 0.678125 16.1188 0.5 16.6438 0.5C17.1688 0.5 17.6094 0.678125 17.9656 1.03437C18.3219 1.39062 18.5 1.83125 18.5 2.35625C18.5 2.88125 18.3219 3.32187 17.9656 3.67812C17.6094 4.03437 17.1688 4.2125 16.6438 4.2125ZM17.7688 10.9344L15.9406 9.10625L16.6438 8.40312C16.7938 8.25312 16.9813 8.17344 17.2063 8.16406C17.4313 8.15469 17.6188 8.225 17.7688 8.375L18.5 9.10625C18.65 9.25625 18.7203 9.44375 18.7109 9.66875C18.7016 9.89375 18.6219 10.0812 18.4719 10.2312L17.7688 10.9344Z" fill="white" fill-opacity="0.8"/>
</svg>
