<svg id="그룹_9" data-name="그룹 9" xmlns="http://www.w3.org/2000/svg" width="120" height="40" viewBox="0 0 120 40">
  <rect id="사각형_68" data-name="사각형 68" width="40" height="40" fill="none"/>
  <rect id="사각형_69" data-name="사각형 69" width="40" height="40" transform="translate(40)" fill="none"/>
  <rect id="사각형_70" data-name="사각형 70" width="40" height="40" transform="translate(80)" fill="none"/>
  <g id="인스타" transform="translate(-82.8 -72.62)" opacity="0.5">
    <g id="그룹_1" data-name="그룹 1" transform="translate(90.3 79.622)">
      <path id="SVGID_1_" d="M13.621,9.085a8.988,8.988,0,0,0-3.036.582,6.3,6.3,0,0,0-2.2,1.447,6,6,0,0,0-1.433,2.213,9.351,9.351,0,0,0-.582,3.036C6.314,17.7,6.3,18.123,6.3,21.514s.028,3.817.085,5.15a8.823,8.823,0,0,0,.582,3.022A6.223,6.223,0,0,0,8.414,31.9a6,6,0,0,0,2.213,1.433,9.351,9.351,0,0,0,3.036.582c1.334.057,1.759.071,5.15.071s3.817-.014,5.15-.085A8.988,8.988,0,0,0,27,33.319a6.223,6.223,0,0,0,2.213-1.447,6,6,0,0,0,1.433-2.213,9.351,9.351,0,0,0,.582-3.036c.057-1.334.071-1.759.071-5.15s-.014-3.817-.085-5.15a8.988,8.988,0,0,0-.582-3.036,6.223,6.223,0,0,0-1.447-2.213,6,6,0,0,0-2.213-1.433,9.351,9.351,0,0,0-3.036-.582C22.588,9.014,22.163,9,18.772,9s-3.817.028-5.15.085m.142,22.574a6.928,6.928,0,0,1-2.313-.426,4.173,4.173,0,0,1-2.369-2.369,6.914,6.914,0,0,1-.44-2.313c-.057-1.32-.071-1.717-.085-5.051s0-3.732.057-5.051a6.928,6.928,0,0,1,.426-2.313,4.173,4.173,0,0,1,2.369-2.369,7.3,7.3,0,0,1,2.313-.44c1.32-.057,1.717-.071,5.037-.085s3.732,0,5.051.057a6.928,6.928,0,0,1,2.313.426,3.756,3.756,0,0,1,1.433.936,3.867,3.867,0,0,1,.936,1.433,7.3,7.3,0,0,1,.44,2.313c.057,1.32.071,1.717.085,5.037s0,3.732-.057,5.051a7.123,7.123,0,0,1-.426,2.327,4.173,4.173,0,0,1-2.369,2.369,7.305,7.305,0,0,1-2.313.44c-1.32.057-1.717.071-5.051.085s-3.717,0-5.037-.057M23.95,14.817a1.5,1.5,0,1,0,1.49-1.5,1.5,1.5,0,0,0-1.49,1.5M12.387,21.5a6.413,6.413,0,1,0,6.4-6.427,6.407,6.407,0,0,0-6.4,6.427m2.242,0A4.164,4.164,0,1,1,18.8,25.657,4.175,4.175,0,0,1,14.629,21.5" transform="translate(-6.3 -9)" fill="#fff"/>
    </g>
  </g>
  <g id="페이스북" transform="translate(28.453 -11.5)" opacity="0.5">
    <g id="그룹_8" data-name="그룹 8" transform="translate(25.2 17.5)">
      <path id="패스_25" data-name="패스 25" d="M37.123,40.418v-11.9H33.2V24.4h3.923V19.958A4.577,4.577,0,0,1,41.5,15.5h4.394v3.729H43.868c-1.005,0-2.335.811-2.335,1.816v3.372h3.956v4.1H41.533v11.9Z" transform="translate(-33.2 -15.5)" fill="#fff"/>
    </g>
  </g>
  <g id="네이버_로고" data-name="네이버 로고" transform="translate(-20.657 -84.745)" opacity="0.5">
    <g id="그룹_4" data-name="그룹 4" transform="translate(108.23 92.16)">
      <path id="패스_6" data-name="패스 6" d="M108.23,92.16h8.648s7.848,12.147,8.086,12.473.263,0,.263,0a21.44,21.44,0,0,1-.757-5.728V92.16h8.614v22.5h-8.614s-7.69-11.5-7.923-11.818-.263,0-.263,0a15.379,15.379,0,0,1,.557,4.507v7.311H108.23Z" transform="translate(-108.23 -92.16)" fill="#fff"/>
    </g>
  </g>
</svg>
