<svg width="110" height="37" viewBox="0 0 110 37" fill="none" xmlns="http://www.w3.org/2000/svg">
<path d="M87.5747 8.91261C87.5747 9.22266 87.6198 9.54398 87.7439 9.84839C88.2907 11.2013 89.6831 12.0357 91.4532 11.331C91.876 11.1619 103.585 6.44348 103.585 6.44348C103.585 6.44348 98.9733 18.1352 98.7985 18.5692C98.1277 20.2435 98.9338 21.7599 100.304 22.2673C100.608 22.38 100.924 22.4308 101.234 22.4308C102.356 22.4251 103.342 21.7656 103.827 20.4465C103.9 20.2492 109.667 4.41406 109.791 4.03637C109.865 3.81088 110 3.28097 110 2.91455C110.005 2.13097 109.712 1.39249 109.154 0.834397C108.596 0.281945 107.869 -0.00555594 107.097 8.13319e-05C106.719 8.13319e-05 106.414 0.0677286 105.952 0.214298C105.676 0.304494 90.8105 5.83466 89.5421 6.30819C88.2738 6.78172 87.5691 7.79079 87.5747 8.91261Z" fill="#ED1C24"/>
<path d="M59.721 17.8421V17.5039H50.7071V19.8095H55.9441C54.5799 24.1277 49.7036 26.6645 49.7036 26.6645L51.0058 28.4853C51.0058 28.4853 59.721 24.8887 59.721 17.8421Z" fill="white"/>
<path d="M56.875 33.1464V28.6704H53.6787V33.7214C53.6787 35.2998 54.9358 36.4386 56.6608 36.4386H66.5655V34.1386H57.9969C57.2189 34.1386 56.892 33.8285 56.875 33.1464Z" fill="white"/>
<path d="M59.3604 21.7483V24.0596H63.1599V29.6123H66.3562V17.2554H63.1599V21.7483H59.3604Z" fill="white"/>
<path d="M86.9046 26.5229H90.101V17.165H86.9046V20.0795H83.5674V22.357H86.9046V26.5229Z" fill="white"/>
<path d="M15.2094 28.4961H3.03857V33.7218C3.03857 35.3003 4.29569 36.439 6.02069 36.439H15.9141V29.2064C15.9141 28.8118 15.5984 28.4961 15.2094 28.4961ZM12.7234 34.1334H7.35672C6.57878 34.139 6.24618 33.829 6.23491 33.1468V30.8017H12.7234V34.1334Z" fill="white"/>
<path d="M16.1339 17.5319V17.4248H2.86937V19.7304H12.791C12.791 19.8827 12.791 20.0743 12.791 20.2604C12.791 22.4025 12.6839 23.8118 12.6275 24.3868H0V26.6925H19.4542V24.3868H15.4743C15.6603 23.6596 16.1339 21.4329 16.1339 17.5319Z" fill="white"/>
<path d="M35.994 29.6521C38.6491 29.0714 40.6109 27.0815 40.6109 24.7251C40.6109 23.4567 40.0415 22.2954 39.1057 21.3991H42.4994V19.0935H35.994V16.9175H32.8033V19.0935H26.2979V21.3991H29.6915C28.7557 22.2954 28.1863 23.4511 28.1863 24.7251C28.1863 27.0871 30.1481 29.0714 32.8089 29.6521V31.9859H24.6743V34.2915H44.1229V31.9859H35.994V29.6521ZM31.4729 24.6518C31.4729 23.079 32.7864 21.7937 34.3986 21.7937C36.0109 21.7937 37.3244 23.0734 37.3244 24.6518C37.3244 26.2303 36.0109 27.5099 34.3986 27.5099C32.7864 27.5099 31.4729 26.2303 31.4729 24.6518Z" fill="white"/>
<path d="M80.7937 26.3207H83.8886C83.7589 25.5709 82.6258 19.5165 79.6775 17.4194H76.1091L73.3638 26.394H76.5714L78.3979 19.9337C79.9425 21.7376 80.6922 25.7344 80.7937 26.3207Z" fill="white"/>
<path d="M81.4303 34.2179C80.6186 34.2179 80.472 34.0093 80.472 33.3216V33.0341H90.1061V28.186C90.1061 27.7689 89.8017 27.4419 89.3676 27.4419H77.332V29.663H87.045V30.8524H77.411V33.7218C77.411 35.3848 78.6061 36.439 80.3931 36.439H90.309V34.2179H81.4303Z" fill="white"/>
</svg>
