<svg width="110" height="37" viewBox="0 0 110 37" fill="none" xmlns="http://www.w3.org/2000/svg">
<path d="M87.5743 8.91261C87.5743 9.22266 87.6194 9.54398 87.7434 9.84839C88.2902 11.2013 89.6826 12.0357 91.4527 11.331C91.8755 11.1619 103.584 6.44348 103.584 6.44348C103.584 6.44348 98.9728 18.1352 98.7981 18.5692C98.1272 20.2435 98.9334 21.7599 100.303 22.2673C100.608 22.38 100.923 22.4308 101.233 22.4308C102.355 22.4251 103.342 21.7656 103.827 20.4465C103.9 20.2492 109.667 4.41406 109.791 4.03637C109.864 3.81088 109.999 3.28097 109.999 2.91455C110.005 2.13097 109.712 1.39249 109.154 0.834397C108.596 0.281945 107.868 -0.00555594 107.096 8.13319e-05C106.718 8.13319e-05 106.414 0.0677286 105.952 0.214298C105.676 0.304494 90.81 5.83466 89.5417 6.30819C88.2733 6.78172 87.5686 7.79079 87.5743 8.91261Z" fill="#ED1C24"/>
<path d="M59.7215 17.8421V17.5039H50.7075V19.8095H55.9446C54.5803 24.1277 49.7041 26.6645 49.7041 26.6645L51.0063 28.4853C51.0063 28.4853 59.7215 24.8887 59.7215 17.8421Z" fill="#454B52"/>
<path d="M56.875 33.1464V28.6704H53.6787V33.7214C53.6787 35.2998 54.9358 36.4386 56.6608 36.4386H66.5655V34.1386H57.9969C57.2189 34.1386 56.892 33.8285 56.875 33.1464Z" fill="#454B52"/>
<path d="M59.3604 21.7483V24.0596H63.1599V29.6123H66.3562V17.2554H63.1599V21.7483H59.3604Z" fill="#454B52"/>
<path d="M86.9046 26.5229H90.101V17.165H86.9046V20.0795H83.5674V22.357H86.9046V26.5229Z" fill="#454B52"/>
<path d="M15.209 28.4961H3.03809V33.7218C3.03809 35.3003 4.2952 36.439 6.0202 36.439H15.9136V29.2064C15.9136 28.8118 15.5979 28.4961 15.209 28.4961ZM12.7229 34.1334H7.35623C6.57829 34.139 6.24569 33.829 6.23442 33.1468V30.8017H12.7229V34.1334Z" fill="#454B52"/>
<path d="M16.1339 17.5319V17.4248H2.86937V19.7304H12.791C12.791 19.8827 12.791 20.0743 12.791 20.2604C12.791 22.4025 12.6839 23.8118 12.6275 24.3868H0V26.6925H19.4542V24.3868H15.4743C15.6603 23.6596 16.1339 21.4329 16.1339 17.5319Z" fill="#454B52"/>
<path d="M35.9944 29.6521C38.6496 29.0714 40.6114 27.0815 40.6114 24.7251C40.6114 23.4567 40.042 22.2954 39.1062 21.3991H42.4999V19.0935H35.9944V16.9175H32.8038V19.0935H26.2983V21.3991H29.692C28.7562 22.2954 28.1868 23.4511 28.1868 24.7251C28.1868 27.0871 30.1486 29.0714 32.8094 29.6521V31.9859H24.6748V34.2915H44.1234V31.9859H35.9944V29.6521ZM31.4734 24.6518C31.4734 23.079 32.7868 21.7937 34.3991 21.7937C36.0114 21.7937 37.3248 23.0734 37.3248 24.6518C37.3248 26.2303 36.0114 27.5099 34.3991 27.5099C32.7868 27.5099 31.4734 26.2303 31.4734 24.6518Z" fill="#454B52"/>
<path d="M80.7932 26.3207H83.8881C83.7584 25.5709 82.6253 19.5165 79.677 17.4194H76.1086L73.3633 26.394H76.5709L78.3974 19.9337C79.942 21.7376 80.6917 25.7344 80.7932 26.3207Z" fill="#454B52"/>
<path d="M81.4303 34.2179C80.6186 34.2179 80.472 34.0093 80.472 33.3216V33.0341H90.1061V28.186C90.1061 27.7689 89.8017 27.4419 89.3676 27.4419H77.332V29.663H87.045V30.8524H77.411V33.7218C77.411 35.3848 78.6061 36.439 80.3931 36.439H90.309V34.2179H81.4303Z" fill="#454B52"/>
</svg>
