<svg width="120" height="41" viewBox="0 0 120 41" fill="none" xmlns="http://www.w3.org/2000/svg">
<path d="M101 34.0811C100.72 34.1372 100.44 34.2401 100.16 34.2401C99.4976 34.2307 98.8444 34.1559 98.1818 34.1372C97.2859 34.1092 96.3807 33.249 96.3994 32.3701C96.4181 31.6875 96.4927 31.0143 96.5114 30.3318C96.53 29.5744 96.3247 29.2659 95.5782 29.2098C95.0183 29.1724 94.421 29.2752 93.8704 29.4061C92.9746 29.6305 93.1519 30.444 93.4318 31.2387C93.7864 32.2485 94.7103 32.7067 95.4382 33.3612C95.5875 33.5014 95.6808 33.6978 95.8022 33.8754C95.6062 34.0063 95.4102 34.2401 95.2142 34.2401C94.281 34.2401 93.3385 34.2494 92.424 34.0998C92.032 34.0344 91.6961 33.5949 91.3415 33.3144C90.6042 32.6973 89.923 31.9867 89.1111 31.4912C88.7472 31.2668 88.1033 31.3883 87.618 31.4818C87.1887 31.566 86.9461 31.9306 86.9834 32.3981C87.0208 32.8376 87.0488 33.277 87.646 33.3705C87.7953 33.3986 87.898 33.6604 88.0286 33.81C87.8513 33.8848 87.6833 33.9876 87.506 34.025C87.2634 34.0811 87.0114 34.1185 86.7688 34.1185C86.1809 34.1185 85.593 34.0998 85.005 34.0905C84.8744 34.0905 84.7531 34.0624 84.6224 34.0811C83.9505 34.1372 83.6332 33.838 83.6986 33.3144C83.7919 32.5758 83.9132 31.8371 84.0905 31.1078C84.2678 30.3879 84.6598 29.6866 84.6971 28.9667C84.7438 28.2654 84.5105 27.5267 84.3238 26.8255C84.1092 26.0307 83.7172 25.2827 83.5493 24.488C83.2973 23.3379 83.2413 22.1785 84.0439 21.15C84.4078 20.6825 84.6131 20.0934 85.005 19.6633C85.7983 18.8031 86.4608 17.8775 87.7113 17.4287C88.6632 17.0921 89.6057 17.0079 90.5482 16.8116C90.6042 16.8022 90.6696 16.7929 90.7256 16.8116C91.7147 17.1949 92.7506 17.2417 93.7958 17.3258C94.2904 17.3632 94.785 17.4754 95.2889 17.5035C96.1848 17.5596 97.0806 17.6531 97.9672 17.6157C99.2363 17.5596 100.515 17.4474 101.775 17.2697C102.988 17.0921 104.154 17.1762 105.339 17.438C106.235 17.6344 107.169 17.8868 108.064 17.8307C109.091 17.7653 110.033 17.8775 110.892 18.3637C112.618 19.3454 114.354 20.2991 115.903 21.5614C116.305 21.8887 116.305 22.4216 115.782 22.6928C115.045 23.0855 114.251 23.366 113.458 23.6371C112.301 24.0392 111.079 24.2729 109.977 24.7872C108.792 25.3388 107.728 26.171 106.581 26.8161C105.974 27.1621 105.414 27.508 105.041 28.1251C104.752 28.602 104.677 29.0041 104.966 29.5183C105.255 30.0326 105.517 30.5936 105.657 31.1639C105.862 31.9867 106.441 32.4075 107.103 32.8002C107.42 32.9872 107.747 33.1368 108.055 33.3425C108.204 33.4453 108.382 33.6323 108.372 33.7632C108.363 33.9035 108.158 34.1279 108.008 34.1466C107.532 34.2214 107.057 34.2214 106.571 34.2307C106.338 34.2307 106.105 34.1372 105.881 34.1559C104.77 34.2775 104.014 33.7445 103.258 32.9965C102.596 32.3327 101.775 31.8371 101 31.3042C100.813 31.1733 100.515 31.0985 100.31 31.1452C99.9082 31.2387 99.3763 31.2294 99.3296 31.8465C99.283 32.4542 99.6469 32.9591 100.235 33.2303C100.533 33.3705 100.776 33.6417 101.047 33.8474C101.037 33.9128 101.019 33.997 101 34.0811Z" fill="white"/>
<path d="M11.2077 10.2197C11.9729 9.79893 12.6355 9.58387 12.9248 8.91067C13.3821 7.83541 14.3059 7.41466 15.3324 7.15286C15.6311 7.07806 15.9763 7.23701 16.303 7.24636C17.8054 7.29311 19.3172 7.49881 20.4744 8.47122C21.5382 9.36882 22.6021 10.2945 23.19 11.6783C23.7592 13.006 24.0205 14.3057 23.9085 15.7549C23.8059 17.0546 23.5166 18.2327 22.9193 19.3921C22.4621 20.2803 22.4248 21.1966 23.078 22.1597C23.5446 22.8516 23.6379 23.8147 23.8712 24.6562C24.2445 26.0587 23.8805 27.4331 23.6286 28.8076C23.6099 28.9011 23.5633 28.9946 23.5166 29.0694C23.0033 29.9202 22.5927 30.874 21.9302 31.5939C21.1929 32.398 20.2784 33.0619 19.1866 33.4359C17.8521 33.894 16.4896 34.0997 15.1085 34.1278C12.4582 34.1745 9.81724 34.1465 7.16696 34.1371C6.96165 34.1371 6.74702 34.0904 6.54171 34.0623C5.94447 33.9688 5.72983 33.6509 5.72983 33.0151C5.74849 24.9367 5.74849 16.8582 5.73916 8.78912C5.73916 8.46187 5.6925 8.13462 5.65517 7.80736C5.62718 7.38661 6.07511 6.91911 6.6537 6.90041C7.37226 6.88171 8.09082 6.98456 8.80939 6.98456C9.21066 6.98456 9.62127 6.93781 10.0132 6.86301C10.8438 6.70406 11.301 7.19961 11.1984 8.05046C11.1144 8.71432 11.1984 9.38752 11.2077 10.2197ZM14.2873 22.8703C14.2873 22.889 14.2873 22.9077 14.2873 22.9264C13.7367 22.9264 13.1861 22.9264 12.6355 22.9264C11.693 22.9264 11.3197 23.2069 11.189 24.1139C11.1331 24.5346 11.2077 24.9741 11.2264 25.3948C11.245 25.7034 11.2824 26.0119 11.273 26.3205C11.2637 26.6851 11.161 27.0498 11.1797 27.4144C11.217 28.471 11.6743 29.0694 12.5515 29.0694C13.9886 29.0694 15.4444 29.1068 16.8442 28.873C17.4788 28.7608 18.2067 28.1344 18.5333 27.5453C18.8599 26.9563 18.8133 26.1148 18.8133 25.3855C18.8133 24.2261 17.8614 23.1789 16.7322 23.0386C15.9204 22.9545 15.0991 22.9264 14.2873 22.8703ZM14.054 12.3328C14.054 12.3608 14.0446 12.3982 14.0446 12.4263C13.5127 12.4263 12.9901 12.4263 12.4582 12.4263C11.7303 12.4356 11.2917 12.8564 11.2917 13.5763C11.2824 14.5581 11.2917 15.5492 11.2917 16.531C11.2917 17.4473 11.6276 17.7652 12.5702 17.7371C13.718 17.6997 14.8752 17.6436 16.023 17.6249C17.3855 17.6062 18.3467 16.8863 18.6733 15.5866C19.0279 14.2028 18.3187 12.9405 16.9375 12.6694C15.9857 12.4824 15.0152 12.4356 14.054 12.3328Z" fill="white"/>
<path d="M62.7295 21.0936C62.7295 17.2974 62.7295 13.5013 62.7295 9.71454C62.7295 9.02263 62.7295 8.33073 62.7295 7.63882C62.7295 7.13392 63.1961 6.74122 63.6907 6.75992C64.8012 6.80667 65.9118 6.85342 67.0223 6.87212C67.9275 6.89082 68.2727 7.34897 68.0674 8.22788C67.9835 8.60188 67.9181 8.99458 67.9275 9.37793C67.9368 9.60234 68.0674 9.96699 68.2168 10.0044C68.4221 10.0605 68.758 9.94829 68.9353 9.78934C69.4672 9.31248 69.9618 8.79823 70.4564 8.28398C71.4083 7.29287 72.6028 7.16197 73.8719 7.27417C74.3105 7.31157 74.7958 7.26482 75.1971 7.42377C76.6995 7.99413 78.1926 8.71408 79.1538 10.0137C79.9284 11.0516 80.563 12.211 80.7683 13.5855C81.0762 15.6051 80.7963 17.4657 79.8164 19.2516C79.3312 20.1305 78.7526 20.8972 77.9687 21.5237C77.4834 21.907 77.4834 22.3371 77.8754 22.9449C78.8272 24.4035 79.4525 25.9836 79.5458 27.7321C79.6484 29.7237 80.2643 31.4815 81.5428 33.0242C81.7108 33.2299 81.8321 33.7348 81.7201 33.847C81.4868 34.0714 81.0856 34.221 80.7589 34.2304C79.7604 34.2491 78.7712 34.1556 77.7727 34.1462C77.0075 34.1369 76.3636 33.9779 76.0183 33.1925C75.6264 32.323 75.0664 31.5002 74.8238 30.5932C74.5905 29.7237 74.7025 28.7793 74.5998 27.8723C74.4319 26.3857 73.8253 25.1234 72.8081 23.9921C71.6883 22.7392 70.2791 22.8046 68.8513 22.8514C68.5994 22.8607 68.1981 23.2067 68.1514 23.4498C67.9928 24.2445 67.9275 25.058 67.9088 25.8621C67.8901 26.6007 68.0021 27.3394 68.0114 28.078C68.0301 29.5928 68.0208 31.1075 68.0114 32.6222C68.0114 32.912 67.9275 33.1925 67.8995 33.4824C67.8621 33.9592 67.5355 34.1182 67.1436 34.1275C65.9677 34.1556 64.7919 34.1462 63.6161 34.1275C63.0095 34.1182 62.7202 33.7255 62.7202 32.9588C62.7202 30.9298 62.7202 28.9102 62.7202 26.8812C62.7295 24.9458 62.7295 23.0197 62.7295 21.0936ZM70.3818 12.7814C69.9152 12.7814 69.4299 12.7253 68.9727 12.8001C68.674 12.8562 68.2634 13.0525 68.1608 13.2956C67.9741 13.7164 67.9461 14.2213 67.9181 14.6981C67.8808 15.3433 67.9461 15.9978 67.8995 16.6429C67.8621 17.1572 68.1981 17.7275 68.6834 17.7275C70.2885 17.7369 71.9029 17.7649 73.508 17.7182C74.7491 17.6808 75.1971 17.3161 75.5424 16.1193C75.645 15.7547 75.6637 15.362 75.6637 14.9786C75.6823 13.8192 74.6185 12.772 73.452 12.772C72.4348 12.7814 71.4083 12.7814 70.3818 12.7814Z" fill="white"/>
<path d="M42.6006 28.5271C42.6006 26.9562 42.6006 25.3854 42.6006 23.8146C42.6006 18.4664 42.6006 13.1182 42.6006 7.76993C42.6006 7.13413 42.8339 6.89103 43.4684 6.89103C44.4856 6.88168 45.5121 6.89103 46.5293 6.89103C46.744 6.89103 46.9773 6.90973 47.1639 6.84428C47.6585 6.65727 48.2464 7.21828 48.2464 7.78863C48.2464 10.5749 48.2464 13.3706 48.2464 16.1569C48.2464 16.3626 48.1438 16.5777 48.1811 16.7647C48.3584 17.6997 48.8717 17.9334 50.0288 17.7464C50.5141 17.6623 51.018 17.7371 51.5126 17.7277C52.6604 17.6997 53.8083 17.709 54.9468 17.5968C55.4787 17.5407 55.6933 17.0919 55.5907 16.5122C55.5347 16.2224 55.656 15.9045 55.656 15.6053C55.6653 13.0901 55.656 10.5749 55.656 8.05978C55.656 7.12478 56.1599 6.77882 57.1025 6.87233C58.045 6.95648 58.9969 6.89103 59.9487 6.90038C60.9659 6.90038 61.1899 7.17153 61.0872 8.16263C61.0499 8.54599 61.1619 8.93869 61.1619 9.32204C61.1619 9.76149 61.0779 10.2103 61.0779 10.6497C61.0686 17.1106 61.0779 23.5809 61.0779 30.0418C61.0779 31.1077 61.0872 32.1736 61.0779 33.2395C61.0686 33.9875 60.5926 34.2773 59.8554 34.1932C58.9595 34.0997 58.0543 34.1464 57.1585 34.1464C55.824 34.1371 55.572 33.922 55.5534 32.5756C55.544 31.9959 55.6373 31.4162 55.656 30.8365C55.6747 30.2101 55.6653 29.5743 55.6653 28.9385C55.6653 27.4612 55.6653 25.9932 55.6653 24.5159C55.6653 22.9638 55.2454 22.9918 54.0229 22.8609C52.9684 22.7394 51.8765 22.9264 50.8034 22.9357C50.2621 22.9451 49.7209 22.8796 49.1796 22.8235C48.6943 22.7674 48.433 23.0573 48.3117 23.4406C48.1904 23.824 48.1344 24.2354 48.1438 24.6374C48.1624 25.909 48.2371 27.1806 48.2464 28.4429C48.2464 29.593 48.1718 30.743 48.1438 31.8931C48.1344 32.3886 48.1997 32.8935 48.1251 33.3704C48.0038 34.1464 47.7891 34.2025 46.9959 34.1651C45.9321 34.109 44.8682 34.1184 43.8044 34.1558C42.7779 34.1932 42.5539 33.9968 42.5912 32.9122C42.6286 31.4349 42.6006 29.9857 42.6006 28.5271Z" fill="white"/>
<path d="M25.5323 20.327C25.5323 16.1195 25.5323 11.912 25.5323 7.71379C25.5323 6.96579 25.9523 6.76008 26.6895 6.85358C27.5947 6.96579 28.5372 6.93774 29.4518 6.85358C30.3943 6.76943 30.8422 7.22759 30.6929 8.15324C30.6089 8.6862 30.7023 9.25655 30.7676 9.8082C30.7863 9.94845 31.0289 10.1729 31.1409 10.1635C31.3648 10.1355 31.6168 10.0046 31.7661 9.83625C32.4847 9.01345 33.1379 8.13454 33.8938 7.33979C34.1364 7.07799 34.603 6.90969 34.9763 6.90034C36.7214 6.85359 38.4665 6.87229 40.2116 6.88164C40.9208 6.88164 41.1541 7.27434 41.1168 8.00364C41.0794 8.9106 41.1728 9.8269 41.1821 10.7432C41.1821 11.1266 41.1541 11.5193 41.0608 11.8933C40.9488 12.3514 40.5568 12.4262 40.1369 12.4169C37.4493 12.4169 34.7617 12.4262 32.0741 12.4075C31.0475 12.4075 30.8422 12.6226 30.7583 13.4547C30.6463 14.53 30.6649 15.6239 30.7583 16.6992C30.8236 17.4846 31.2062 17.7184 32.0274 17.7184C34.1458 17.7184 36.2641 17.7184 38.3825 17.7184C39.1944 17.7184 39.409 17.9521 39.4277 18.7469C39.4557 19.7567 39.5023 20.7758 39.5397 21.7856C39.5677 22.5056 38.9424 23.0105 38.2425 22.8422C38.0745 22.8048 37.8972 22.7861 37.7199 22.7861C36.5254 22.8235 35.3403 22.8702 34.1458 22.8983C33.4365 22.917 32.7273 22.8702 32.0181 22.9076C31.0755 22.9637 30.7116 23.3751 30.7116 24.3008C30.7116 25.3386 30.7023 26.3859 30.7209 27.4237C30.7303 27.8071 30.7676 28.1998 30.8516 28.5738C30.9636 29.0506 31.3368 29.1535 31.7941 29.1535C34.4444 29.1441 37.0853 29.1535 39.7356 29.1441C40.9115 29.1441 41.2194 29.4901 41.1914 30.6214C41.1728 31.4068 41.1914 32.1922 41.1821 32.9776C41.1728 33.8004 40.8648 34.0997 40.0529 34.0997C35.5176 34.0997 30.9822 34.0997 26.4562 34.0997C25.7563 34.0997 25.5323 33.8752 25.5323 33.1553C25.523 28.901 25.5323 24.6093 25.5323 20.327Z" fill="white"/>
</svg>
