<svg width="180" height="45" viewBox="0 0 180 45" fill="none" xmlns="http://www.w3.org/2000/svg">
<path d="M22.1599 22.31L20.1599 0.22998C16.5299 1.48998 13.9199 4.93998 13.9199 8.99998C13.9199 9.97998 14.0799 10.92 14.3599 11.81C12.8399 10.72 10.9799 10.08 8.96988 10.08C5.82988 10.08 3.05988 11.64 1.37988 14.02L22.1599 22.31Z" fill="#00AE4D"/>
<path d="M21.58 24.36L0 19.3C0.05 23.14 2.5 26.7001 6.36 27.9801C7.29 28.2901 8.24 28.43 9.17 28.45C7.66 29.55 6.47 31.11 5.83 33.02C4.84 36 5.45 39.1201 7.18 41.4601L21.58 24.36Z" fill="#00AE4D"/>
<path d="M23.37 25.39L11.98 44.41C15.66 45.53 19.79 44.28 22.19 41C22.77 40.21 23.19 39.35 23.49 38.47C24.08 40.24 25.2 41.86 26.83 43.04C29.36 44.89 32.52 45.26 35.28 44.33L23.37 25.39Z" fill="#00AE4D"/>
<path d="M24.3599 22.31L44.7599 13.62C42.4399 10.55 38.3599 9.13 34.4999 10.38C33.5699 10.68 32.7199 11.12 31.9599 11.67C32.5299 9.89 32.5699 7.92 31.9499 6.01C30.9899 3.03 28.6499 0.87 25.8699 0L24.3599 22.31Z" fill="#00AE4D"/>
<path d="M24.9702 24.2L39.5502 40.9C41.7502 37.75 41.8302 33.42 39.4502 30.14C38.8702 29.35 38.1902 28.68 37.4402 28.12C39.3102 28.11 41.1902 27.53 42.8202 26.35C45.3602 24.51 46.6902 21.62 46.6502 18.71L24.9702 24.2Z" fill="#00AE4D"/>
<path d="M66.053 9.771V25.513H68.195V9.771H66.053ZM63.945 15.823V17.642H66.563V15.823H63.945ZM62.534 10.043V24.765H64.625V10.043H62.534ZM55.122 20.107V21.96H56.227C58.25 21.96 59.916 21.909 61.82 21.535L61.65 19.699C59.78 20.039 58.165 20.107 56.227 20.107H55.122ZM55.122 11.59V20.991H57.366V13.409H60.936V11.59H55.122ZM78.7507 13.834V15.653H82.4227V13.834H78.7507ZM81.2327 9.788V21.263H83.4937V9.788H81.2327ZM73.1067 23.439V25.241H83.8507V23.439H73.1067ZM73.1067 20.294V24.51H75.3677V20.294H73.1067ZM73.9567 11.845V12.831C73.9567 14.82 72.8347 16.877 70.2337 17.727L71.3727 19.529C74.3987 18.526 75.7927 15.789 75.7927 12.831V11.845H73.9567ZM74.4327 11.845V12.831C74.4327 15.636 75.7757 18.254 78.6997 19.223L79.8047 17.455C77.3227 16.622 76.2517 14.667 76.2517 12.831V11.845H74.4327ZM70.8457 10.842V12.627H79.3117V10.842H70.8457ZM85.9743 17.166V18.968H100.22V17.166H85.9743ZM91.9753 14.803V17.863H94.2193V14.803H91.9753ZM87.6913 14.089V15.874H98.6053V14.089H87.6913ZM87.6913 10.451V15.228H89.9353V12.219H98.5203V10.451H87.6913ZM93.0463 19.75C89.6463 19.75 87.5723 20.787 87.5723 22.64C87.5723 24.493 89.6463 25.53 93.0463 25.53C96.4463 25.53 98.5033 24.493 98.5033 22.64C98.5033 20.787 96.4463 19.75 93.0463 19.75ZM93.0463 21.45C95.1543 21.45 96.2253 21.841 96.2253 22.64C96.2253 23.456 95.1543 23.813 93.0463 23.813C90.9383 23.813 89.8673 23.456 89.8673 22.64C89.8673 21.841 90.9383 21.45 93.0463 21.45ZM107.563 17.336V19.529H109.824V17.336H107.563ZM101.596 16.01V17.778H115.825V16.01H101.596ZM103.347 10.23V15.177H114.023V10.23H103.347ZM111.796 11.981V13.443H105.574V11.981H111.796ZM103.228 18.764V20.447H111.881V21.246H103.245V24.204H105.472V22.81H114.108V18.764H103.228ZM103.245 23.711V25.411H114.516V23.711H103.245ZM117.252 21.858V23.694H131.498V21.858H117.252ZM123.219 18.492V22.3H125.48V18.492H123.219ZM118.748 10.774V18.968H129.951V10.774H127.707V13.188H120.992V10.774H118.748ZM120.992 14.956H127.707V17.166H120.992V14.956ZM133.485 11.726V13.528H146.473V11.726H133.485ZM132.89 22.113V23.932H147.136V22.113H132.89ZM138.857 20.039V22.827H141.101V20.039H138.857ZM139.962 14.208C136.681 14.208 134.624 15.347 134.624 17.285C134.624 19.223 136.681 20.362 139.962 20.362C143.243 20.362 145.3 19.223 145.3 17.285C145.3 15.347 143.243 14.208 139.962 14.208ZM139.962 15.959C141.934 15.959 142.988 16.384 142.988 17.285C142.988 18.186 141.934 18.594 139.962 18.594C137.99 18.594 136.936 18.186 136.936 17.285C136.936 16.384 137.99 15.959 139.962 15.959ZM138.857 9.941V12.848H141.101V9.941H138.857ZM154.768 13.358V15.177H157.267V13.358H154.768ZM159.783 9.771V21.552H161.925V9.771H159.783ZM156.638 10.026V21.076H158.763V10.026H156.638ZM151.334 23.439V25.241H162.333V23.439H151.334ZM151.334 20.175V24.578H153.595V20.175H151.334ZM151.283 10.825V12.848C151.283 14.718 150.45 16.758 148.308 17.812L149.532 19.529C152.031 18.356 153.051 15.619 153.051 12.848V10.825H151.283ZM151.742 10.825V12.848C151.742 15.534 152.626 18.05 154.955 19.138L156.196 17.421C154.224 16.469 153.476 14.667 153.476 12.848V10.825H151.742ZM175.116 9.754V25.547H177.36V9.754H175.116ZM172.413 15.296V17.132H175.371V15.296H172.413ZM164.865 20.158V21.994H166.123C168.775 21.994 170.815 21.926 173.093 21.569L172.889 19.767C170.662 20.124 168.724 20.158 166.123 20.158H164.865ZM164.865 11.08V20.736H167.109V12.916H172.158V11.08H164.865ZM166.599 15.466V17.234H171.614V15.466H166.599ZM55 38H56.88C59.09 38 60.29 36.64 60.29 34.31C60.29 31.98 59.09 30.67 56.83 30.67H55V38ZM55.93 37.24V31.43H56.76C58.48 31.43 59.34 32.45 59.34 34.31C59.34 36.17 58.48 37.24 56.76 37.24H55.93ZM63.0548 38.14C63.7248 38.14 64.3348 37.79 64.8448 37.36H64.8848L64.9648 38H65.7148V34.67C65.7148 33.32 65.1548 32.44 63.8248 32.44C62.9548 32.44 62.1948 32.82 61.6948 33.14L62.0548 33.78C62.4748 33.49 63.0448 33.19 63.6848 33.19C64.5748 33.19 64.7948 33.86 64.7948 34.56C62.4848 34.82 61.4648 35.41 61.4648 36.59C61.4648 37.57 62.1448 38.14 63.0548 38.14ZM63.3048 37.4C62.7748 37.4 62.3548 37.15 62.3548 36.53C62.3548 35.83 62.9648 35.38 64.7948 35.17V36.68C64.2748 37.15 63.8348 37.4 63.3048 37.4ZM69.6295 38.14C70.3695 38.14 70.9395 37.89 71.4195 37.58L71.0895 36.97C70.6895 37.24 70.2595 37.41 69.7395 37.41C68.6995 37.41 67.9995 36.66 67.9295 35.51H71.5895C71.6195 35.37 71.6295 35.18 71.6295 34.99C71.6295 33.43 70.8495 32.44 69.4695 32.44C68.2195 32.44 67.0295 33.53 67.0295 35.3C67.0295 37.08 68.1795 38.14 69.6295 38.14ZM67.9195 34.85C68.0395 33.78 68.7195 33.17 69.4795 33.17C70.3395 33.17 70.8295 33.76 70.8295 34.85H67.9195ZM72.4066 40.43C73.4766 40.43 73.8966 39.73 73.8966 38.63V32.57H72.9766V38.62C72.9766 39.28 72.8466 39.7 72.3066 39.7C72.1166 39.7 71.9266 39.64 71.7966 39.6L71.6166 40.29C71.7966 40.36 72.0766 40.43 72.4066 40.43ZM73.4266 31.45C73.7766 31.45 74.0366 31.22 74.0366 30.84C74.0366 30.49 73.7766 30.26 73.4266 30.26C73.0766 30.26 72.8266 30.49 72.8266 30.84C72.8266 31.22 73.0766 31.45 73.4266 31.45ZM77.9205 38.14C78.6605 38.14 79.2305 37.89 79.7105 37.58L79.3805 36.97C78.9805 37.24 78.5505 37.41 78.0305 37.41C76.9905 37.41 76.2905 36.66 76.2205 35.51H79.8805C79.9105 35.37 79.9205 35.18 79.9205 34.99C79.9205 33.43 79.1405 32.44 77.7605 32.44C76.5105 32.44 75.3205 33.53 75.3205 35.3C75.3205 37.08 76.4705 38.14 77.9205 38.14ZM76.2105 34.85C76.3305 33.78 77.0105 33.17 77.7705 33.17C78.6305 33.17 79.1205 33.76 79.1205 34.85H76.2105ZM83.3777 38.14C84.7077 38.14 85.8877 37.09 85.8877 35.3C85.8877 33.48 84.7077 32.44 83.3777 32.44C82.0377 32.44 80.8577 33.48 80.8577 35.3C80.8577 37.09 82.0377 38.14 83.3777 38.14ZM83.3777 37.38C82.4277 37.38 81.7977 36.54 81.7977 35.3C81.7977 34.04 82.4277 33.2 83.3777 33.2C84.3177 33.2 84.9477 34.04 84.9477 35.3C84.9477 36.54 84.3177 37.38 83.3777 37.38ZM87.3321 38H88.2421V34.06C88.7821 33.52 89.1721 33.23 89.7221 33.23C90.4421 33.23 90.7521 33.66 90.7521 34.68V38H91.6721V34.56C91.6721 33.18 91.1521 32.44 90.0121 32.44C89.2621 32.44 88.7021 32.85 88.1921 33.36H88.1621L88.0721 32.57H87.3321V38ZM95.752 38H96.592V33.95C96.592 33.31 96.522 32.43 96.472 31.78H96.512L97.092 33.45L98.482 37.27H99.102L100.492 33.45L101.072 31.78H101.122C101.072 32.43 101.002 33.31 101.002 33.95V38H101.862V30.67H100.742L99.352 34.6C99.182 35.1 99.022 35.61 98.842 36.13H98.802C98.622 35.61 98.452 35.1 98.272 34.6L96.862 30.67H95.752V38ZM105.977 38.14C106.717 38.14 107.287 37.89 107.767 37.58L107.437 36.97C107.037 37.24 106.607 37.41 106.087 37.41C105.047 37.41 104.347 36.66 104.277 35.51H107.937C107.967 35.37 107.977 35.18 107.977 34.99C107.977 33.43 107.197 32.44 105.817 32.44C104.567 32.44 103.377 33.53 103.377 35.3C103.377 37.08 104.527 38.14 105.977 38.14ZM104.267 34.85C104.387 33.78 105.067 33.17 105.827 33.17C106.687 33.17 107.177 33.76 107.177 34.85H104.267ZM110.888 38.14C111.228 38.14 111.588 38.04 111.888 37.93L111.708 37.25C111.538 37.32 111.288 37.4 111.098 37.4C110.468 37.4 110.258 37.01 110.258 36.35V33.31H111.728V32.57H110.258V31.04H109.488L109.388 32.57L108.538 32.63V33.31H109.348V36.33C109.348 37.41 109.728 38.14 110.888 38.14ZM112.957 38H113.867V34.52C114.227 33.59 114.787 33.26 115.237 33.26C115.457 33.26 115.577 33.29 115.767 33.35L115.937 32.55C115.757 32.47 115.597 32.44 115.357 32.44C114.747 32.44 114.187 32.87 113.817 33.56H113.787L113.697 32.57H112.957V38ZM118.807 38.14C120.137 38.14 121.317 37.09 121.317 35.3C121.317 33.48 120.137 32.44 118.807 32.44C117.467 32.44 116.287 33.48 116.287 35.3C116.287 37.09 117.467 38.14 118.807 38.14ZM118.807 37.38C117.857 37.38 117.227 36.54 117.227 35.3C117.227 34.04 117.857 33.2 118.807 33.2C119.747 33.2 120.377 34.04 120.377 35.3C120.377 36.54 119.747 37.38 118.807 37.38ZM122.762 40.29H123.672V38.46L123.652 37.51C124.142 37.91 124.652 38.14 125.142 38.14C126.392 38.14 127.502 37.06 127.502 35.21C127.502 33.53 126.752 32.44 125.342 32.44C124.712 32.44 124.112 32.79 123.622 33.2H123.592L123.502 32.57H122.762V40.29ZM125.002 37.37C124.642 37.37 124.162 37.22 123.672 36.81V33.95C124.202 33.46 124.662 33.2 125.122 33.2C126.152 33.2 126.562 34.01 126.562 35.22C126.562 36.56 125.892 37.37 125.002 37.37ZM131.073 38.14C132.403 38.14 133.583 37.09 133.583 35.3C133.583 33.48 132.403 32.44 131.073 32.44C129.733 32.44 128.553 33.48 128.553 35.3C128.553 37.09 129.733 38.14 131.073 38.14ZM131.073 37.38C130.123 37.38 129.493 36.54 129.493 35.3C129.493 34.04 130.123 33.2 131.073 33.2C132.013 33.2 132.643 34.04 132.643 35.3C132.643 36.54 132.013 37.38 131.073 37.38ZM135.987 38.14C136.237 38.14 136.377 38.1 136.507 38.06L136.387 37.36C136.277 37.38 136.237 37.38 136.197 37.38C136.057 37.38 135.937 37.27 135.937 36.98V30.05H135.027V36.92C135.027 37.7 135.297 38.14 135.987 38.14ZM137.869 38H138.779V32.57H137.869V38ZM138.329 31.45C138.679 31.45 138.939 31.22 138.939 30.84C138.939 30.49 138.679 30.26 138.329 30.26C137.969 30.26 137.719 30.49 137.719 30.84C137.719 31.22 137.969 31.45 138.329 31.45ZM142.323 38.14C142.663 38.14 143.023 38.04 143.323 37.93L143.143 37.25C142.973 37.32 142.723 37.4 142.533 37.4C141.903 37.4 141.693 37.01 141.693 36.35V33.31H143.163V32.57H141.693V31.04H140.923L140.823 32.57L139.973 32.63V33.31H140.783V36.33C140.783 37.41 141.163 38.14 142.323 38.14ZM145.369 38.14C146.039 38.14 146.649 37.79 147.159 37.36H147.199L147.279 38H148.029V34.67C148.029 33.32 147.469 32.44 146.139 32.44C145.269 32.44 144.509 32.82 144.009 33.14L144.369 33.78C144.789 33.49 145.359 33.19 145.999 33.19C146.889 33.19 147.109 33.86 147.109 34.56C144.799 34.82 143.779 35.41 143.779 36.59C143.779 37.57 144.459 38.14 145.369 38.14ZM145.619 37.4C145.089 37.4 144.669 37.15 144.669 36.53C144.669 35.83 145.279 35.38 147.109 35.17V36.68C146.589 37.15 146.149 37.4 145.619 37.4ZM149.754 38H150.664V34.06C151.204 33.52 151.594 33.23 152.144 33.23C152.864 33.23 153.174 33.66 153.174 34.68V38H154.094V34.56C154.094 33.18 153.574 32.44 152.434 32.44C151.684 32.44 151.124 32.85 150.614 33.36H150.584L150.494 32.57H149.754V38ZM160.944 38.14C161.894 38.14 162.604 37.76 163.184 37.08L162.684 36.5C162.214 37.02 161.674 37.32 160.984 37.32C159.584 37.32 158.704 36.17 158.704 34.32C158.704 32.49 159.624 31.35 161.014 31.35C161.634 31.35 162.124 31.63 162.504 32.04L163.014 31.44C162.584 30.97 161.894 30.54 161.004 30.54C159.144 30.54 157.754 31.98 157.754 34.34C157.754 36.72 159.114 38.14 160.944 38.14ZM164.471 38H165.381V32.57H164.471V38ZM164.931 31.45C165.281 31.45 165.541 31.22 165.541 30.84C165.541 30.49 165.281 30.26 164.931 30.26C164.571 30.26 164.321 30.49 164.321 30.84C164.321 31.22 164.571 31.45 164.931 31.45ZM168.925 38.14C169.265 38.14 169.625 38.04 169.925 37.93L169.745 37.25C169.575 37.32 169.325 37.4 169.135 37.4C168.505 37.4 168.295 37.01 168.295 36.35V33.31H169.765V32.57H168.295V31.04H167.525L167.425 32.57L166.575 32.63V33.31H167.385V36.33C167.385 37.41 167.765 38.14 168.925 38.14ZM171.074 40.35C172.164 40.35 172.724 39.53 173.104 38.46L175.154 32.57H174.264L173.284 35.59C173.144 36.08 172.984 36.62 172.834 37.12H172.784C172.604 36.62 172.424 36.07 172.254 35.59L171.144 32.57H170.204L172.384 38.01L172.264 38.42C172.034 39.09 171.644 39.59 171.034 39.59C170.884 39.59 170.724 39.55 170.624 39.51L170.444 40.24C170.614 40.31 170.824 40.35 171.074 40.35Z" fill="white"/>
</svg>
