<svg width="47" height="45" viewBox="0 0 47 45" fill="none" xmlns="http://www.w3.org/2000/svg">
<path d="M22.1599 22.31L20.1599 0.22998C16.5299 1.48998 13.9199 4.93998 13.9199 8.99998C13.9199 9.97998 14.0799 10.92 14.3599 11.81C12.8399 10.72 10.9799 10.08 8.96988 10.08C5.82988 10.08 3.05988 11.64 1.37988 14.02L22.1599 22.31Z" fill="#00AE4D"/>
<path d="M21.58 24.36L0 19.3C0.05 23.14 2.5 26.7001 6.36 27.9801C7.29 28.2901 8.24 28.43 9.17 28.45C7.66 29.55 6.47 31.11 5.83 33.02C4.84 36 5.45 39.1201 7.18 41.4601L21.58 24.36Z" fill="#00AE4D"/>
<path d="M23.37 25.39L11.98 44.41C15.66 45.53 19.79 44.28 22.19 41C22.77 40.21 23.19 39.35 23.49 38.47C24.08 40.24 25.2 41.86 26.83 43.04C29.36 44.89 32.52 45.26 35.28 44.33L23.37 25.39Z" fill="#00AE4D"/>
<path d="M24.3599 22.31L44.7599 13.62C42.4399 10.55 38.3599 9.13 34.4999 10.38C33.5699 10.68 32.7199 11.12 31.9599 11.67C32.5299 9.89 32.5699 7.92 31.9499 6.01C30.9899 3.03 28.6499 0.87 25.8699 0L24.3599 22.31Z" fill="#00AE4D"/>
<path d="M24.9702 24.2L39.5502 40.9C41.7502 37.75 41.8302 33.42 39.4502 30.14C38.8702 29.35 38.1902 28.68 37.4402 28.12C39.3102 28.11 41.1902 27.53 42.8202 26.35C45.3602 24.51 46.6902 21.62 46.6502 18.71L24.9702 24.2Z" fill="#00AE4D"/>
</svg>
