<svg width="120" height="41" viewBox="0 0 120 41" fill="none" xmlns="http://www.w3.org/2000/svg">
<g opacity="0.8">
<path d="M101 34.0811C100.72 34.1372 100.44 34.2401 100.16 34.2401C99.4977 34.2307 98.8445 34.1559 98.1819 34.1372C97.2861 34.1092 96.3809 33.249 96.3995 32.3701C96.4182 31.6875 96.4928 31.0143 96.5115 30.3318C96.5302 29.5744 96.3249 29.2659 95.5783 29.2098C95.0184 29.1724 94.4211 29.2752 93.8706 29.4061C92.9747 29.6305 93.152 30.444 93.432 31.2387C93.7866 32.2485 94.7104 32.7067 95.4383 33.3612C95.5876 33.5014 95.681 33.6978 95.8023 33.8754C95.6063 34.0063 95.4103 34.2401 95.2144 34.2401C94.2812 34.2401 93.3386 34.2494 92.4241 34.0998C92.0322 34.0344 91.6962 33.5949 91.3416 33.3144C90.6044 32.6973 89.9231 31.9867 89.1112 31.4912C88.7473 31.2668 88.1034 31.3883 87.6181 31.4818C87.1889 31.566 86.9462 31.9306 86.9835 32.3981C87.0209 32.8376 87.0489 33.277 87.6461 33.3705C87.7954 33.3986 87.8981 33.6604 88.0287 33.81C87.8514 33.8848 87.6834 33.9876 87.5061 34.025C87.2635 34.0811 87.0115 34.1185 86.7689 34.1185C86.181 34.1185 85.5931 34.0998 85.0052 34.0905C84.8745 34.0905 84.7532 34.0624 84.6226 34.0811C83.9507 34.1372 83.6334 33.838 83.6987 33.3144C83.792 32.5758 83.9133 31.8371 84.0906 31.1078C84.2679 30.3879 84.6599 29.6866 84.6972 28.9667C84.7439 28.2654 84.5106 27.5267 84.3239 26.8255C84.1093 26.0307 83.7174 25.2827 83.5494 24.488C83.2974 23.3379 83.2414 22.1785 84.044 21.15C84.4079 20.6825 84.6132 20.0934 85.0052 19.6633C85.7984 18.8031 86.461 17.8775 87.7114 17.4287C88.6633 17.0921 89.6058 17.0079 90.5484 16.8116C90.6044 16.8022 90.6697 16.7929 90.7257 16.8116C91.7149 17.1949 92.7507 17.2417 93.7959 17.3258C94.2905 17.3632 94.7851 17.4754 95.289 17.5035C96.1849 17.5596 97.0808 17.6531 97.9673 17.6157C99.2365 17.5596 100.515 17.4474 101.775 17.2697C102.988 17.0921 104.154 17.1762 105.34 17.438C106.235 17.6344 107.169 17.8868 108.065 17.8307C109.091 17.7653 110.034 17.8775 110.892 18.3637C112.619 19.3454 114.354 20.2991 115.903 21.5614C116.305 21.8887 116.305 22.4216 115.782 22.6928C115.045 23.0855 114.252 23.366 113.458 23.6371C112.301 24.0392 111.079 24.2729 109.978 24.7872C108.792 25.3388 107.729 26.171 106.581 26.8161C105.974 27.1621 105.414 27.508 105.041 28.1251C104.752 28.602 104.677 29.0041 104.966 29.5183C105.256 30.0326 105.517 30.5936 105.657 31.1639C105.862 31.9867 106.441 32.4075 107.103 32.8002C107.421 32.9872 107.747 33.1368 108.055 33.3425C108.204 33.4453 108.382 33.6323 108.372 33.7632C108.363 33.9035 108.158 34.1279 108.009 34.1466C107.533 34.2214 107.057 34.2214 106.571 34.2307C106.338 34.2307 106.105 34.1372 105.881 34.1559C104.77 34.2775 104.014 33.7445 103.259 32.9965C102.596 32.3327 101.775 31.8371 101 31.3042C100.814 31.1733 100.515 31.0985 100.31 31.1452C99.9083 31.2387 99.3764 31.2294 99.3298 31.8465C99.2831 32.4542 99.6471 32.9591 100.235 33.2303C100.534 33.3705 100.776 33.6417 101.047 33.8474C101.038 33.9128 101.019 33.997 101 34.0811Z" fill="#1D1D1D"/>
<path d="M11.2078 10.2197C11.9731 9.79893 12.6356 9.58387 12.9249 8.91067C13.3822 7.83541 14.306 7.41466 15.3326 7.15286C15.6312 7.07806 15.9765 7.23701 16.3031 7.24636C17.8055 7.29311 19.3173 7.49881 20.4745 8.47122C21.5383 9.36882 22.6022 10.2945 23.1901 11.6783C23.7593 13.006 24.0206 14.3057 23.9087 15.7549C23.806 17.0546 23.5167 18.2327 22.9195 19.3921C22.4622 20.2803 22.4249 21.1966 23.0781 22.1597C23.5447 22.8516 23.638 23.8147 23.8713 24.6562C24.2446 26.0587 23.8807 27.4331 23.6287 28.8076C23.61 28.9011 23.5634 28.9946 23.5167 29.0694C23.0035 29.9202 22.5929 30.874 21.9303 31.5939C21.1931 32.398 20.2785 33.0619 19.1867 33.4359C17.8522 33.894 16.4897 34.0997 15.1086 34.1278C12.4583 34.1745 9.81736 34.1465 7.16708 34.1371C6.96177 34.1371 6.74714 34.0904 6.54184 34.0623C5.94459 33.9688 5.72995 33.6509 5.72995 33.0151C5.74862 24.9367 5.74862 16.8582 5.73928 8.78912C5.73928 8.46187 5.69262 8.13462 5.6553 7.80736C5.6273 7.38661 6.07524 6.91911 6.65382 6.90041C7.37238 6.88171 8.09094 6.98456 8.80951 6.98456C9.21078 6.98456 9.62139 6.93781 10.0133 6.86301C10.8439 6.70406 11.3011 7.19961 11.1985 8.05046C11.1145 8.71432 11.1985 9.38752 11.2078 10.2197ZM14.2874 22.8703C14.2874 22.889 14.2874 22.9077 14.2874 22.9264C13.7368 22.9264 13.1862 22.9264 12.6356 22.9264C11.6931 22.9264 11.3198 23.2069 11.1892 24.1139C11.1332 24.5346 11.2078 24.9741 11.2265 25.3948C11.2452 25.7034 11.2825 26.0119 11.2732 26.3205C11.2638 26.6851 11.1612 27.0498 11.1798 27.4144C11.2172 28.471 11.6744 29.0694 12.5516 29.0694C13.9888 29.0694 15.4445 29.1068 16.8443 28.873C17.4789 28.7608 18.2068 28.1344 18.5334 27.5453C18.8601 26.9563 18.8134 26.1148 18.8134 25.3855C18.8134 24.2261 17.8615 23.1789 16.7324 23.0386C15.9205 22.9545 15.0993 22.9264 14.2874 22.8703ZM14.0541 12.3328C14.0541 12.3608 14.0448 12.3982 14.0448 12.4263C13.5128 12.4263 12.9902 12.4263 12.4583 12.4263C11.7304 12.4356 11.2918 12.8564 11.2918 13.5763C11.2825 14.5581 11.2918 15.5492 11.2918 16.531C11.2918 17.4473 11.6278 17.7652 12.5703 17.7371C13.7181 17.6997 14.8753 17.6436 16.0231 17.6249C17.3856 17.6062 18.3468 16.8863 18.6734 15.5866C19.028 14.2028 18.3188 12.9405 16.9377 12.6694C15.9858 12.4824 15.0153 12.4356 14.0541 12.3328Z" fill="#1D1D1D"/>
<path d="M62.7295 21.0936C62.7295 17.2974 62.7295 13.5013 62.7295 9.71454C62.7295 9.02263 62.7295 8.33073 62.7295 7.63882C62.7295 7.13392 63.1961 6.74122 63.6907 6.75992C64.8012 6.80667 65.9118 6.85342 67.0223 6.87212C67.9275 6.89082 68.2727 7.34897 68.0674 8.22788C67.9835 8.60188 67.9181 8.99458 67.9275 9.37793C67.9368 9.60234 68.0674 9.96699 68.2168 10.0044C68.4221 10.0605 68.758 9.94829 68.9353 9.78934C69.4672 9.31248 69.9618 8.79823 70.4564 8.28398C71.4083 7.29287 72.6028 7.16197 73.8719 7.27417C74.3105 7.31157 74.7958 7.26482 75.1971 7.42377C76.6995 7.99413 78.1926 8.71408 79.1538 10.0137C79.9284 11.0516 80.563 12.211 80.7683 13.5855C81.0762 15.6051 80.7963 17.4657 79.8164 19.2516C79.3312 20.1305 78.7526 20.8972 77.9687 21.5237C77.4834 21.907 77.4834 22.3371 77.8754 22.9449C78.8272 24.4035 79.4525 25.9836 79.5458 27.7321C79.6484 29.7237 80.2643 31.4815 81.5428 33.0242C81.7108 33.2299 81.8321 33.7348 81.7201 33.847C81.4868 34.0714 81.0856 34.221 80.7589 34.2304C79.7604 34.2491 78.7712 34.1556 77.7727 34.1462C77.0075 34.1369 76.3636 33.9779 76.0183 33.1925C75.6264 32.323 75.0664 31.5002 74.8238 30.5932C74.5905 29.7237 74.7025 28.7793 74.5998 27.8723C74.4319 26.3857 73.8253 25.1234 72.8081 23.9921C71.6883 22.7392 70.2791 22.8046 68.8513 22.8514C68.5994 22.8607 68.1981 23.2067 68.1514 23.4498C67.9928 24.2445 67.9275 25.058 67.9088 25.8621C67.8901 26.6007 68.0021 27.3394 68.0114 28.078C68.0301 29.5928 68.0208 31.1075 68.0114 32.6222C68.0114 32.912 67.9275 33.1925 67.8995 33.4824C67.8621 33.9592 67.5355 34.1182 67.1436 34.1275C65.9677 34.1556 64.7919 34.1462 63.6161 34.1275C63.0095 34.1182 62.7202 33.7255 62.7202 32.9588C62.7202 30.9298 62.7202 28.9102 62.7202 26.8812C62.7295 24.9458 62.7295 23.0197 62.7295 21.0936ZM70.3818 12.7814C69.9152 12.7814 69.4299 12.7253 68.9727 12.8001C68.674 12.8562 68.2634 13.0525 68.1608 13.2956C67.9741 13.7164 67.9461 14.2213 67.9181 14.6981C67.8808 15.3433 67.9461 15.9978 67.8995 16.6429C67.8621 17.1572 68.1981 17.7275 68.6834 17.7275C70.2885 17.7369 71.9029 17.7649 73.508 17.7182C74.7491 17.6808 75.1971 17.3161 75.5424 16.1193C75.645 15.7547 75.6637 15.362 75.6637 14.9786C75.6823 13.8192 74.6185 12.772 73.452 12.772C72.4348 12.7814 71.4083 12.7814 70.3818 12.7814Z" fill="#1D1D1D"/>
<path d="M42.6006 28.5271C42.6006 26.9562 42.6006 25.3854 42.6006 23.8146C42.6006 18.4664 42.6006 13.1182 42.6006 7.76993C42.6006 7.13413 42.8339 6.89103 43.4684 6.89103C44.4856 6.88168 45.5121 6.89103 46.5293 6.89103C46.744 6.89103 46.9773 6.90973 47.1639 6.84428C47.6585 6.65727 48.2464 7.21828 48.2464 7.78863C48.2464 10.5749 48.2464 13.3706 48.2464 16.1569C48.2464 16.3626 48.1438 16.5777 48.1811 16.7647C48.3584 17.6997 48.8717 17.9334 50.0288 17.7464C50.5141 17.6623 51.018 17.7371 51.5126 17.7277C52.6604 17.6997 53.8083 17.709 54.9468 17.5968C55.4787 17.5407 55.6933 17.0919 55.5907 16.5122C55.5347 16.2224 55.656 15.9045 55.656 15.6053C55.6653 13.0901 55.656 10.5749 55.656 8.05978C55.656 7.12478 56.1599 6.77882 57.1025 6.87233C58.045 6.95648 58.9969 6.89103 59.9487 6.90038C60.9659 6.90038 61.1899 7.17153 61.0872 8.16263C61.0499 8.54599 61.1619 8.93869 61.1619 9.32204C61.1619 9.76149 61.0779 10.2103 61.0779 10.6497C61.0686 17.1106 61.0779 23.5809 61.0779 30.0418C61.0779 31.1077 61.0872 32.1736 61.0779 33.2395C61.0686 33.9875 60.5926 34.2773 59.8554 34.1932C58.9595 34.0997 58.0543 34.1464 57.1585 34.1464C55.824 34.1371 55.572 33.922 55.5534 32.5756C55.544 31.9959 55.6373 31.4162 55.656 30.8365C55.6747 30.2101 55.6653 29.5743 55.6653 28.9385C55.6653 27.4612 55.6653 25.9932 55.6653 24.5159C55.6653 22.9638 55.2454 22.9918 54.0229 22.8609C52.9684 22.7394 51.8765 22.9264 50.8034 22.9357C50.2621 22.9451 49.7209 22.8796 49.1796 22.8235C48.6943 22.7674 48.433 23.0573 48.3117 23.4406C48.1904 23.824 48.1344 24.2354 48.1438 24.6374C48.1624 25.909 48.2371 27.1806 48.2464 28.4429C48.2464 29.593 48.1718 30.743 48.1438 31.8931C48.1344 32.3886 48.1997 32.8935 48.1251 33.3704C48.0038 34.1464 47.7891 34.2025 46.9959 34.1651C45.9321 34.109 44.8682 34.1184 43.8044 34.1558C42.7779 34.1932 42.5539 33.9968 42.5912 32.9122C42.6286 31.4349 42.6006 29.9857 42.6006 28.5271Z" fill="#1D1D1D"/>
<path d="M25.5322 20.327C25.5322 16.1195 25.5322 11.912 25.5322 7.71379C25.5322 6.96579 25.9522 6.76008 26.6894 6.85358C27.5946 6.96579 28.5371 6.93774 29.4517 6.85358C30.3942 6.76943 30.8421 7.22759 30.6928 8.15324C30.6088 8.6862 30.7021 9.25655 30.7675 9.8082C30.7861 9.94845 31.0288 10.1729 31.1407 10.1635C31.3647 10.1355 31.6167 10.0046 31.766 9.83625C32.4846 9.01345 33.1378 8.13454 33.8937 7.33979C34.1363 7.07799 34.6029 6.90969 34.9762 6.90034C36.7213 6.85359 38.4664 6.87229 40.2114 6.88164C40.9207 6.88164 41.154 7.27434 41.1166 8.00364C41.0793 8.9106 41.1726 9.8269 41.182 10.7432C41.182 11.1266 41.154 11.5193 41.0606 11.8933C40.9487 12.3514 40.5567 12.4262 40.1368 12.4169C37.4492 12.4169 34.7616 12.4262 32.0739 12.4075C31.0474 12.4075 30.8421 12.6226 30.7581 13.4547C30.6462 14.53 30.6648 15.6239 30.7581 16.6992C30.8235 17.4846 31.2061 17.7184 32.0273 17.7184C34.1456 17.7184 36.264 17.7184 38.3824 17.7184C39.1943 17.7184 39.4089 17.9521 39.4275 18.7469C39.4555 19.7567 39.5022 20.7758 39.5395 21.7856C39.5675 22.5056 38.9423 23.0105 38.2424 22.8422C38.0744 22.8048 37.8971 22.7861 37.7198 22.7861C36.5253 22.8235 35.3401 22.8702 34.1456 22.8983C33.4364 22.917 32.7272 22.8702 32.018 22.9076C31.0754 22.9637 30.7115 23.3751 30.7115 24.3008C30.7115 25.3386 30.7021 26.3859 30.7208 27.4237C30.7301 27.8071 30.7675 28.1998 30.8515 28.5738C30.9634 29.0506 31.3367 29.1535 31.794 29.1535C34.4443 29.1441 37.0852 29.1535 39.7355 29.1441C40.9113 29.1441 41.2193 29.4901 41.1913 30.6214C41.1726 31.4068 41.1913 32.1922 41.182 32.9776C41.1726 33.8004 40.8647 34.0997 40.0528 34.0997C35.5174 34.0997 30.9821 34.0997 26.4561 34.0997C25.7562 34.0997 25.5322 33.8752 25.5322 33.1553C25.5229 28.901 25.5322 24.6093 25.5322 20.327Z" fill="#1D1D1D"/>
</g>
</svg>
