<svg width="23" height="23" viewBox="0 0 23 23" fill="none" xmlns="http://www.w3.org/2000/svg">
<path d="M8.78959 5.15708C7.98936 5.18888 7.44452 5.30813 6.96779 5.48303C6.48255 5.66588 6.06541 5.90438 5.64827 6.29393C5.23113 6.68348 4.97574 7.07303 4.78845 7.53413C4.60116 7.97934 4.48198 8.48814 4.43942 9.23544C4.40536 9.98274 4.39685 10.2212 4.39685 12.1213C4.40536 14.0214 4.41388 14.2599 4.44793 15.0072C4.48198 15.7545 4.60968 16.2633 4.79696 16.7005C4.99276 17.1616 5.24816 17.5512 5.6653 17.9407C6.08244 18.3303 6.49957 18.5688 6.99333 18.7437C7.47006 18.9186 8.0149 19.0299 8.81513 19.0696C9.61535 19.1014 9.87074 19.1094 11.9054 19.1094C13.94 19.1014 14.1954 19.1014 14.9956 19.0617C15.7958 19.0299 16.3407 18.9106 16.8174 18.7357C17.3112 18.5529 17.7283 18.3144 18.1454 17.9248C18.5626 17.5353 18.818 17.1457 19.0052 16.6846C19.1925 16.2394 19.3117 15.7306 19.3543 14.9833C19.3883 14.236 19.3969 13.9975 19.3969 12.0974C19.3883 10.1974 19.3883 9.95889 19.3458 9.21159C19.3117 8.46429 19.184 7.95549 18.9967 7.51028C18.8009 7.04918 18.5455 6.65963 18.1284 6.27008C17.7113 5.88053 17.2941 5.64203 16.8004 5.46713C16.3236 5.29223 15.7788 5.18093 14.9786 5.14118C14.1698 5.11732 13.9144 5.10938 11.8798 5.10938C9.8452 5.11733 9.58981 5.12528 8.78959 5.15708ZM8.87472 17.8056C8.14259 17.7738 7.75099 17.6625 7.48709 17.5671C7.13805 17.4399 6.89118 17.2888 6.62727 17.0424C6.36337 16.7959 6.20162 16.5654 6.06541 16.2394C5.96325 15.993 5.83556 15.6193 5.8015 14.9436C5.76745 14.2042 5.75894 13.9816 5.75043 12.1133C5.75043 10.2451 5.75043 10.0225 5.78448 9.28314C5.81853 8.59944 5.93771 8.23374 6.03987 7.98729C6.17608 7.66133 6.33783 7.43078 6.60173 7.18433C6.86564 6.93788 7.11251 6.78683 7.46155 6.65963C7.72545 6.56423 8.12557 6.45293 8.84918 6.41318C9.64089 6.38138 9.87926 6.37343 11.8713 6.36548C13.8719 6.36548 14.1102 6.36548 14.902 6.39728C15.6341 6.42908 16.0257 6.54038 16.2896 6.63578C16.6386 6.76298 16.894 6.91403 17.1494 7.16048C17.4133 7.40693 17.5751 7.63748 17.7113 7.96344C17.8134 8.20989 17.9326 8.58354 17.9752 9.25929C18.0092 9.99864 18.0177 10.2212 18.0262 12.0815C18.0348 13.9498 18.0262 14.1724 17.9922 14.9118C17.9581 15.5955 17.839 15.9612 17.7368 16.2156C17.6006 16.5415 17.4388 16.7721 17.1749 17.0185C16.911 17.265 16.6642 17.416 16.3151 17.5432C16.0512 17.6386 15.6511 17.7499 14.9275 17.7897C14.1358 17.8215 13.8974 17.8294 11.8969 17.8374C9.9048 17.8453 9.66643 17.8374 8.87472 17.8056ZM14.9871 8.36889C14.9871 8.82999 15.3957 9.20364 15.8895 9.20364C16.3832 9.20364 16.7919 8.82204 16.7833 8.36094C16.7833 7.89983 16.3747 7.52618 15.881 7.52618C15.3872 7.52618 14.9871 7.90778 14.9871 8.36889ZM8.04895 12.1133C8.04895 14.1009 9.7771 15.6988 11.9054 15.6988C14.0251 15.6909 15.7448 14.085 15.7448 12.0974C15.7362 10.1179 14.0166 8.50404 11.8883 8.51199C9.76007 8.51994 8.04044 10.1338 8.04895 12.1133ZM9.39401 12.1133C9.39401 10.8254 10.5092 9.78399 11.8883 9.77604C13.2675 9.77604 14.3912 10.8175 14.3912 12.1054C14.3912 13.3933 13.276 14.4427 11.8969 14.4427C10.5177 14.4427 9.40253 13.4013 9.39401 12.1133Z" fill="black"/>
</svg>
