<svg width="23" height="23" viewBox="0 0 23 23" fill="none" xmlns="http://www.w3.org/2000/svg">
<path d="M20.0628 8.5149C19.8784 7.96206 19.3366 7.52593 18.6485 7.37846C17.4004 7.10938 12.3973 7.10938 12.3973 7.10938C12.3973 7.10938 7.39332 7.10938 6.14602 7.37846C5.45801 7.52593 4.91525 7.96206 4.73085 8.5149C4.39685 9.51786 4.39685 11.6097 4.39685 11.6097C4.39685 11.6097 4.39685 13.7016 4.73085 14.7045C4.91525 15.2581 5.45714 15.6935 6.14602 15.841C7.39419 16.1094 12.3973 16.1094 12.3973 16.1094C12.3973 16.1094 17.4004 16.1094 18.6485 15.841C19.3366 15.6928 19.8793 15.2574 20.0628 14.7045C20.3969 13.7016 20.3969 11.6097 20.3969 11.6097C20.3969 11.6097 20.3969 9.51786 20.0628 8.5149ZM10.7969 13.538V9.6807L14.9536 11.6097L10.7969 13.538Z" fill="black"/>
</svg>
