<svg xmlns="http://www.w3.org/2000/svg" width="40" height="35.7" viewBox="0 0 40 35.7">
  <path id="heart2" d="M21.95,40.2,19.3,37.75A145.18,145.18,0,0,1,8.55,26.775Q4,21.55,4,15.85A10.334,10.334,0,0,1,14.5,5.3a11.375,11.375,0,0,1,5.05,1.225A11.871,11.871,0,0,1,24,10.55a14.5,14.5,0,0,1,4.55-4.025A10.564,10.564,0,0,1,33.5,5.3,10.334,10.334,0,0,1,44,15.85q0,5.7-4.55,10.925A145.18,145.18,0,0,1,28.7,37.75L26.05,40.2a3.027,3.027,0,0,1-4.1,0Zm.75-26.35a11.75,11.75,0,0,0-3.55-4A7.941,7.941,0,0,0,14.5,8.3a7.264,7.264,0,0,0-5.4,2.125A7.394,7.394,0,0,0,7,15.85a11.654,11.654,0,0,0,1.95,6.075A42.485,42.485,0,0,0,13.6,28.1a70.635,70.635,0,0,0,5.6,5.575Q22.1,36.25,24,38q1.9-1.7,4.8-4.3a71.382,71.382,0,0,0,5.6-5.625,43.59,43.59,0,0,0,4.65-6.2A11.587,11.587,0,0,0,41,15.85,7.271,7.271,0,0,0,33.5,8.3a7.989,7.989,0,0,0-4.675,1.525A12.459,12.459,0,0,0,25.2,13.85a1.665,1.665,0,0,1-.55.575,1.364,1.364,0,0,1-.7.175,1.5,1.5,0,0,1-.725-.175A1.269,1.269,0,0,1,22.7,13.85ZM24,23.15Z" transform="translate(-4 -5.3)"/>
</svg>
