<?xml version="1.0" encoding="utf-8"?>
<!-- Generator: Adobe Illustrator 24.0.1, SVG Export Plug-In . SVG Version: 6.00 Build 0)  -->
<svg version="1.0" id="Layer_1" xmlns="http://www.w3.org/2000/svg" xmlns:xlink="http://www.w3.org/1999/xlink" x="0px" y="0px"
	 viewBox="0 0 58 55" style="enable-background:new 0 0 58 55;" xml:space="preserve">
<path d="M27.95,44.55L25.3,42.1c-4.13-3.83-7.72-7.49-10.75-10.97S10,24,10,20.2c0-3,1.01-5.51,3.02-7.52s4.51-3.03,7.48-3.03
	c1.7,0,3.38,0.41,5.05,1.23S28.7,13.03,30,14.9c1.47-1.87,2.98-3.21,4.55-4.02s3.22-1.23,4.95-1.23c2.97,0,5.46,1.01,7.47,3.03
	C48.99,14.69,50,17.2,50,20.2c0,3.8-1.52,7.44-4.55,10.93c-3.03,3.48-6.62,7.14-10.75,10.97l-2.65,2.45
	c-0.57,0.53-1.25,0.8-2.05,0.8S28.52,45.08,27.95,44.55z M28.7,18.2c-0.9-1.63-2.08-2.97-3.55-4c-1.47-1.03-3.02-1.55-4.65-1.55
	c-2.2,0-4,0.71-5.4,2.13C13.7,16.19,13,18,13,20.2c0,1.93,0.65,3.96,1.95,6.07s2.85,4.18,4.65,6.18s3.67,3.86,5.6,5.57
	c1.93,1.72,3.53,3.16,4.8,4.33c1.27-1.13,2.87-2.57,4.8-4.3s3.8-3.61,5.6-5.63s3.35-4.08,4.65-6.2C46.35,24.11,47,22.1,47,20.2
	c0-2.2-0.71-4.01-2.13-5.43c-1.42-1.42-3.21-2.13-5.38-2.13c-1.67,0-3.22,0.51-4.67,1.52s-2.66,2.36-3.63,4.03
	c-0.17,0.27-0.35,0.46-0.55,0.57s-0.43,0.18-0.7,0.18c-0.27,0-0.51-0.06-0.73-0.18S28.83,18.47,28.7,18.2z"/>
</svg>
