<svg width="48" height="48" viewBox="0 0 48 48" fill="none" xmlns="http://www.w3.org/2000/svg">
<path d="M21.95 40.2L19.3 37.75C15.1667 33.9167 11.5833 30.2583 8.55 26.775C5.51667 23.2917 4 19.65 4 15.85C4 12.85 5.00833 10.3417 7.025 8.325C9.04167 6.30834 11.5333 5.3 14.5 5.3C16.2 5.3 17.8833 5.70834 19.55 6.525C21.2167 7.34167 22.7 8.68334 24 10.55C25.4667 8.68334 26.9833 7.34167 28.55 6.525C30.1167 5.70834 31.7667 5.3 33.5 5.3C36.4667 5.3 38.9583 6.30834 40.975 8.325C42.9917 10.3417 44 12.85 44 15.85C44 19.65 42.4833 23.2917 39.45 26.775C36.4167 30.2583 32.8333 33.9167 28.7 37.75L26.05 40.2C25.4833 40.7333 24.8 41 24 41C23.2 41 22.5167 40.7333 21.95 40.2ZM22.7 13.85C21.8 12.2167 20.6167 10.8833 19.15 9.85C17.6833 8.81667 16.1333 8.3 14.5 8.3C12.3 8.3 10.5 9.00834 9.1 10.425C7.7 11.8417 7 13.65 7 15.85C7 17.7833 7.65 19.8083 8.95 21.925C10.25 24.0417 11.8 26.1 13.6 28.1C15.4 30.1 17.2667 31.9583 19.2 33.675C21.1333 35.3917 22.7333 36.8333 24 38C25.2667 36.8667 26.8667 35.4333 28.8 33.7C30.7333 31.9667 32.6 30.0917 34.4 28.075C36.2 26.0583 37.75 23.9917 39.05 21.875C40.35 19.7583 41 17.75 41 15.85C41 13.65 40.2917 11.8417 38.875 10.425C37.4583 9.00834 35.6667 8.3 33.5 8.3C31.8333 8.3 30.275 8.80834 28.825 9.825C27.375 10.8417 26.1667 12.1833 25.2 13.85C25.0333 14.1167 24.85 14.3083 24.65 14.425C24.45 14.5417 24.2167 14.6 23.95 14.6C23.6833 14.6 23.4417 14.5417 23.225 14.425C23.0083 14.3083 22.8333 14.1167 22.7 13.85V13.85Z" fill="black"/>
</svg>
