<svg width="100" height="100" viewBox="0 0 100 100" fill="none" xmlns="http://www.w3.org/2000/svg">
<path d="M86.5298 28.97H13.0198C9.9998 28.97 7.5498 26.52 7.5498 23.5C7.5498 20.48 9.9998 18.03 13.0198 18.03H86.5298C89.5498 18.03 91.9998 20.48 91.9998 23.5C91.9998 26.52 89.5498 28.97 86.5298 28.97Z" fill="#3D3D3D"/>
<path d="M86.5298 55.56H13.0198C9.9998 55.56 7.5498 53.11 7.5498 50.09C7.5498 47.07 9.9998 44.62 13.0198 44.62H86.5298C89.5498 44.62 91.9998 47.07 91.9998 50.09C91.9998 53.11 89.5498 55.56 86.5298 55.56Z" fill="#3D3D3D"/>
<path d="M86.5298 82.15H13.0198C9.9998 82.15 7.5498 79.7 7.5498 76.68C7.5498 73.66 9.9998 71.21 13.0198 71.21H86.5298C89.5498 71.21 91.9998 73.66 91.9998 76.68C91.9998 79.7 89.5498 82.15 86.5298 82.15Z" fill="#3D3D3D"/>
</svg>
