<svg xmlns="http://www.w3.org/2000/svg" width="220" height="44.633" viewBox="0 0 220 44.633">
  <g id="logo" transform="translate(-313.003 -628.069)">
    <path id="path178" d="M412.514,672.57a11.437,11.437,0,0,0-4.675-1.32c-1.32,0-2.165.477-2.165,1.212,0,2.23,7.511,1.6,7.511,6.754,0,2.836-2.381,4.481-5.67,4.481a10.007,10.007,0,0,1-5.326-1.429v-3.182c2.122,1.408,3.421,1.9,5.044,1.9,1.406,0,2.165-.5,2.165-1.363,0-2.425-7.512-1.537-7.512-6.84,0-2.554,2.208-4.242,5.629-4.242a12.068,12.068,0,0,1,5,1.148v2.878" transform="translate(-40.883 -18.664)"/>
    <path id="path180" d="M434.522,685.69c-.325,0-.52-.2-.52-.692v-4.545c0-2.187-1.71-3.03-4.221-3.03a8.114,8.114,0,0,0-4.329,1.211v2.554a5.448,5.448,0,0,1,3.679-1.667c1.363,0,1.8.736,1.731,1.667-4.176,1.3-5.93,1.776-5.93,4.156a2.663,2.663,0,0,0,2.793,2.447,5.574,5.574,0,0,0,3.29-1.126c.217.8.714,1.126,1.753,1.126a6.543,6.543,0,0,0,2.944-.909v-1.754c-.736.52-.974.563-1.19.563Zm-3.659-.519a2.655,2.655,0,0,1-1.731.757,1.04,1.04,0,0,1-1.017-1.06c0-1,.888-1.429,2.748-2.1v2.4" transform="translate(-51.484 -22.757)"/>
    <path id="path182" d="M444.205,677.782h3.355l2.121,5.5,2.143-5.5h3.333l-4.589,10.174h-1.753l-4.61-10.174" transform="translate(-60.349 -22.923)"/>
    <path id="path184" d="M468.53,683.115h7.164c.152-3.636-2.251-5.692-5.152-5.692a5.035,5.035,0,0,0-5.26,5.216c0,3.116,2.273,5.152,5.78,5.152a7.231,7.231,0,0,0,4.459-1.32V684.5a5.86,5.86,0,0,1-3.7,1.429C469.85,685.929,468.638,684.89,468.53,683.115Zm2.23-3.831a2.147,2.147,0,0,1,2.165,2.187h-4.33a2.121,2.121,0,0,1,2.165-2.187" transform="translate(-70.044 -22.757)"/>
    <path id="path186" d="M504.2,677.24h-3.636v4.113a1.45,1.45,0,0,0,1.537,1.6,4.364,4.364,0,0,0,2.1-.583v2.273a7.107,7.107,0,0,1-2.9.628c-2.077,0-3.875-.952-3.875-3.745V677.24H496v-.606l4.178-4.676h.389V675.1H504.2v2.143" transform="translate(-84.173 -20.237)"/>
    <path id="path188" d="M516.637,675.163h.043a3.857,3.857,0,0,1,3.161-1.667,3.5,3.5,0,0,1,3.658,3.81v6.363h-3.139v-5.693c0-1.493-.649-2.185-1.623-2.185-.736,0-1.363.454-2.1,1.516v6.363H513.5V668.907h3.139v6.255" transform="translate(-92.222 -18.831)"/>
    <path id="path190" d="M538.347,683.115h7.165c.151-3.636-2.251-5.692-5.152-5.692a5.034,5.034,0,0,0-5.26,5.216c0,3.116,2.273,5.152,5.778,5.152a7.227,7.227,0,0,0,4.459-1.32V684.5a5.854,5.854,0,0,1-3.7,1.429C539.667,685.929,538.454,684.89,538.347,683.115Zm2.228-3.831a2.146,2.146,0,0,1,2.165,2.187h-4.329a2.12,2.12,0,0,1,2.164-2.187" transform="translate(-102.158 -22.757)"/>
    <path id="path192" d="M581.612,682.225a11.463,11.463,0,0,1-5.8,1.472c-5.735,0-8.593-3.724-8.593-7.534,0-3.939,3.225-7.619,8.874-7.619a10.409,10.409,0,0,1,5.347,1.3v3.29a10.3,10.3,0,0,0-5.087-1.516c-3.139,0-5.347,1.862-5.347,4.481,0,2.641,2.187,4.524,5.261,4.524,1.927,0,3.225-.606,5.346-1.623v3.225" transform="translate(-116.925 -18.664)"/>
    <path id="path194" d="M601.124,675.163h.043a3.857,3.857,0,0,1,3.161-1.667,3.5,3.5,0,0,1,3.658,3.81v6.363h-3.139v-5.693c0-1.493-.649-2.185-1.623-2.185-.736,0-1.363.454-2.1,1.516v6.363h-3.139V668.907h3.139v6.255" transform="translate(-131.084 -18.831)"/>
    <path id="path196" d="M620.63,687.762h3.138v-9.979H620.63Z" transform="translate(-141.511 -22.924)"/>
    <path id="path198" d="M623.772,670.276a1.731,1.731,0,1,1-1.731-1.731,1.737,1.737,0,0,1,1.731,1.731" transform="translate(-141.363 -18.664)"/>
    <path id="path200" d="M630.713,683.669h3.139V668.907h-3.139Z" transform="translate(-146.149 -18.831)"/>
    <path id="path202" d="M647.117,668.907v5.216a5.8,5.8,0,0,0-2.6-.628c-2.857,0-4.849,2.121-4.849,5.173,0,2.987,1.991,5.195,4.675,5.195a4.093,4.093,0,0,0,2.771-1v.8h3.139V668.907Zm0,12.035a2.632,2.632,0,0,1-1.862.822c-1.471,0-2.4-1.213-2.4-3.03,0-1.991.931-3.139,2.51-3.139a3.4,3.4,0,0,1,1.754.585v4.762" transform="translate(-150.187 -18.831)"/>
    <path id="path204" d="M666.579,680.474h.043c.93-2.077,1.97-3.051,3.181-3.051a3.413,3.413,0,0,1,2.079.908l-.866,2.771a3.611,3.611,0,0,0-1.862-.736c-1.146,0-1.882,1.082-2.575,2.922V687.6H663.44v-9.979h3.139v2.857" transform="translate(-161.147 -22.757)"/>
    <path id="path206" d="M682.795,683.115h7.164c.151-3.636-2.251-5.692-5.152-5.692a5.034,5.034,0,0,0-5.26,5.216c0,3.116,2.273,5.152,5.78,5.152a7.226,7.226,0,0,0,4.458-1.32V684.5a5.854,5.854,0,0,1-3.7,1.429C684.115,685.929,682.9,684.89,682.795,683.115Zm2.23-3.831a2.146,2.146,0,0,1,2.164,2.187h-4.329a2.121,2.121,0,0,1,2.165-2.187" transform="translate(-168.575 -22.757)"/>
    <path id="path208" d="M704.969,679.044a4.019,4.019,0,0,1,3.247-1.622,3.493,3.493,0,0,1,3.636,3.831v6.341h-3.139v-6.083c0-1.406-.671-1.991-1.557-1.991-.78,0-1.365.411-2.186,1.645v6.429H701.83v-9.979h3.139v1.428" transform="translate(-178.849 -22.757)"/>
    <path id="path210" d="M352.686,640.24c1.99-2.046,2.874-2.993,2.735-3.554a1.88,1.88,0,0,0-1.137-1.1,2.907,2.907,0,0,0-2.114-.249,7.179,7.179,0,0,0-1.116,1.018l-.628.616h0c-.345-.4-.713-.807-1.076-1.171a19.834,19.834,0,0,0-9.658-5.313,6.083,6.083,0,0,0-5.23-2.4,5.89,5.89,0,0,0-4.194,2.438,22.249,22.249,0,0,0-10.331,5.592v0a4.593,4.593,0,0,0-2.8.319,1.4,1.4,0,0,0-.872.85c-.065.255.013.665.966,1.916v0a21.918,21.918,0,0,0-4.206,13.894,20.02,20.02,0,0,0,5.8,13.224,19.737,19.737,0,0,0,4.124,3.161h0a24.409,24.409,0,0,0,22.753.757l.013-.005a1.237,1.237,0,0,0,.6-1.592l-.071-.2c-.966-2.639-3.908-10.674-1.483-17.654,1.016-2.921,3.57-5.93,5.759-8.279h0a19.469,19.469,0,0,1,2.317,11.419,17.789,17.789,0,0,1-4.223,9.777h0a.416.416,0,0,0-.115.288.705.705,0,0,0,.022.135l.186.528a.421.421,0,0,0,.7.139h.013a21.412,21.412,0,0,0,3.28-24.561h0ZM326.3,655.326a40.306,40.306,0,0,0-1.331,11.825v0a20.151,20.151,0,0,1-3.923-3.047,19.8,19.8,0,0,1-5.705-11.826,18.348,18.348,0,0,1,2.793-11.951h0c.71.85,1.572,1.834,2.475,2.86a61.573,61.573,0,0,1,5.893,7.348c.682,1.148.35,2.521-.2,4.795ZM348.13,639.1c-4.671,4.093-8.955,6.19-12.722,6.216a15.3,15.3,0,0,1-8.9-3.179,34.993,34.993,0,0,1-5.48-5l-.115-.123h0a17.853,17.853,0,0,1,8.226-4.35s0,0,0,0h0s0,0,0,0a8.965,8.965,0,0,0-.437,3.712,8.443,8.443,0,0,0,2.839,5.738,5.661,5.661,0,0,0,8.24-.721,8.434,8.434,0,0,0,1.8-6.143,9.319,9.319,0,0,0-.2-1.254h0a19.931,19.931,0,0,1,5.746,4.02c.341.342.679.7,1.005,1.083h0" fill="#ed1b2d"/>
  </g>
</svg>
