<svg xmlns="http://www.w3.org/2000/svg" width="166.717" height="257.771" viewBox="0 0 166.717 257.771">
  <g id="circle_txt" transform="translate(-547.1 -135.806)">
    <g id="그룹_3" data-name="그룹 3" transform="translate(547.1 135.806)">
      <path id="패스_13" data-name="패스 13" d="M585.767,143.657c-.135,4.75,4,9.74,7.18,11.447l-.649.758a16.677,16.677,0,0,1-7.09-9.381,16.858,16.858,0,0,1-7.5,9.356l-.635-.826c3.274-1.612,7.629-6.511,7.768-11.381l.16-5.646.926.026Zm13.048-7.823-.748,26.38-.985-.028.748-26.38Z" transform="translate(-547.216 -135.806)" fill="#fff"/>
      <path id="패스_14" data-name="패스 14" d="M620.877,155.232l-11.289-3.448,3.439-11.259,11.288,3.447Zm5.736,12.218-.262.857-16.519-5.042,2.3-7.546.943.288-2.042,6.687Zm-3.466-22.928-9.459-2.889-2.932,9.6,9.458,2.888Zm4.043,17.761-.943-.288,5.593-18.319.943.29Z" transform="translate(-547.341 -135.824)" fill="#fff"/>
      <path id="패스_15" data-name="패스 15" d="M635.183,165.62a116.9,116.9,0,0,0,15.515,8.734l-.316.718a99.513,99.513,0,0,1-15.536-8.533Zm18.922-1.245c-1.908,3-5.519,3.5-8.948,1.32-3.454-2.2-4.532-5.679-2.624-8.68s5.52-3.5,8.973-1.3C654.935,157.891,656.013,161.374,654.1,164.375Zm-10.766-6.846c-1.522,2.395-.626,5.55,2.3,7.409,2.9,1.845,6.137,1.32,7.66-1.077,1.54-2.42.627-5.55-2.272-7.393C648.1,154.607,644.878,155.108,643.338,157.529Zm19.678,3.023-14.158,22.264-.833-.529,14.158-22.264Z" transform="translate(-547.439 -135.878)" fill="#fff"/>
      <path id="패스_16" data-name="패스 16" d="M678.3,208.924c-2.231,1.657-5.392.059-8.6-4.26-3.19-4.3-3.807-7.782-1.576-9.439,2.256-1.674,5.415-.076,8.606,4.219C679.937,203.762,680.554,207.249,678.3,208.924Zm-.571-.768c1.751-1.3,1.032-4.525-1.694-8.2-2.709-3.647-5.588-5.269-7.34-3.967-1.727,1.282-1.031,4.525,1.694,8.2C673.1,207.836,676,209.439,677.729,208.156Zm-3.167-15.441c-2-2.689-1.946-5.478.236-7.1s4.87-.863,6.865,1.825c1.978,2.663,1.929,5.454-.254,7.076S676.539,195.379,674.562,192.715Zm.7-.517c1.639,2.207,3.943,2.8,5.6,1.574s1.75-3.607.111-5.814c-1.657-2.232-3.961-2.829-5.616-1.6S673.6,189.967,675.258,192.2Zm12.068-.291-8.339-11.227.72-.534,3.9,5.254,2.783-2.067.589.792-2.784,2.067,3.831,5.159Zm-7.721,8.6-.589-.792,12.309-9.142.588.793-5.878,4.365,2.888,3.886,6.285-4.668.589.792-13.531,10.05-.589-.792,6.527-4.847-2.887-3.886Z" transform="translate(-547.563 -135.977)" fill="#fff"/>
      <path id="패스_17" data-name="패스 17" d="M686.076,216.147l6.579,16.9-7.38,2.872-.357-.917,6.544-2.548-6.222-15.983Zm11.656,18.165-.836.326-8.628-22.166.836-.325,4.151,10.666,3.787-1.474-2.97-7.629,8.938-3.479.359.918-3.453,1.344,5.57,14.313,3.454-1.344.358.918-8.939,3.48-2.959-7.6-3.787,1.473Zm-2.465-20.01,5.569,14.313,3.816-1.485-5.57-14.312Z" transform="translate(-547.633 -136.094)" fill="#fff"/>
      <path id="패스_18" data-name="패스 18" d="M689.044,246.634l1.746,17.3-.893.091-1.841-18.254,5.649-.57,1.655,16.41,3.33-.336-1.665-16.5.862-.087,1.76,17.451-5.053.51-1.656-16.41Zm14.823,18.326-.891.091-2.39-23.7.891-.089Zm4.858-21.514c2.944-.3,4.946,2.895,5.51,8.485s-.761,9.117-3.7,9.412c-2.972.3-4.977-2.891-5.541-8.481S705.751,243.747,708.725,243.447Zm.1.981c-2.319.235-3.455,3.563-2.971,8.35s2.259,7.82,4.579,7.587c2.288-.231,3.425-3.56,2.943-8.346S711.112,244.2,708.823,244.428Z" transform="translate(-547.645 -136.214)" fill="#fff"/>
      <path id="패스_19" data-name="패스 19" d="M708.5,307.61l-25.473-6.878.257-.952,25.473,6.879Zm-13.225-6.851a77.182,77.182,0,0,1,1.359-8.579l-9.692-2.617.256-.952,9.665,2.61c.643-2.954,1.361-5.73,2.009-8.123l.976.047a128.719,128.719,0,0,0-3.768,17.738Zm11.8-13.188c3.028.817,4.317,3.952,3.312,7.673-1,3.693-3.689,5.751-6.717,4.933s-4.347-3.959-3.35-7.652C701.317,288.8,704.037,286.753,707.067,287.571Zm-.25.923c-2.394-.647-4.789,1.121-5.639,4.264-.842,3.116.34,5.848,2.734,6.495,2.364.64,4.79-1.121,5.631-4.237C710.393,291.873,709.182,289.133,706.817,288.494Z" transform="translate(-547.625 -136.375)" fill="#fff"/>
      <path id="패스_20" data-name="패스 20" d="M679.49,312.488l-8.278,14.022-.772-.456,8.779-14.869,6.432,3.8-.5.85Zm3.565,24.345-.772-.456,2.187-3.7-8.309-4.906.5-.849L693.745,337l-.5.849-8-4.724Zm2.612-17.646c1.9-3.216,4.723-4.357,7.218-2.885s2.834,4.484.936,7.7c-1.868,3.165-4.683,4.347-7.179,2.875S683.8,322.353,685.667,319.187Zm.746.44c-1.581,2.676-1.228,5.311.7,6.452,1.955,1.154,4.382.157,5.962-2.518,1.595-2.7,1.294-5.307-.661-6.461C690.485,315.96,688.006,316.927,686.413,319.627Zm5.127,12.117,7.943-13.455.771.455-3.72,6.3,3.138,1.853-.5.849-3.138-1.852-3.722,6.3Z" transform="translate(-547.577 -136.484)" fill="#fff"/>
      <path id="패스_21" data-name="패스 21" d="M643.184,353.192l-.559-.7,13.407-10.659,4.8,6.038-.772.614-4.241-5.335Zm11.532,11.528,5.319,6.691-.772.615-12.35-15.536.771-.614,6.474,8.141,5.124-4.072.557.7Zm-.025-8.916c3.112-.984,6.856-.982,9.664.87a11.407,11.407,0,0,1,.923-9.934l.9.273c-1.943,3.224-2.532,8.007.074,11.283l.966,1.216,5.124-4.074.558.7-5.124,4.074,2.382,2.994-.773.615-2.381-3-5.054,4.018-.557-.7,5.076-4.035-.966-1.216c-2.493-3.136-7.212-3.356-10.735-2.121Z" transform="translate(-547.469 -136.602)" fill="#fff"/>
      <path id="패스_22" data-name="패스 22" d="M633.148,358.632l-14.978,6.4-.352-.825,15.884-6.784,3.134,7.338-.906.386Zm-11.219,22.5-.352-.825,3.958-1.69-4.037-9.453.906-.388,7.736,18.111-.909.388-3.344-7.833Zm13.314-12.348c3.517-1.5,7.056-.219,8.522,3.217,1.456,3.408-.051,6.878-3.569,8.381s-7.067.19-8.522-3.217C630.206,373.732,631.724,370.289,635.242,368.786Zm.352.825a5.413,5.413,0,1,0,7.291,2.767A5.419,5.419,0,0,0,635.594,369.611Z" transform="translate(-547.373 -136.662)" fill="#fff"/>
      <path id="패스_23" data-name="패스 23" d="M594.346,394.475l-3.512-26.154.976-.133,3.514,26.154Zm18.026-21.81a116.96,116.96,0,0,0-17.494,3.315l-.222-.754a99.4,99.4,0,0,1,17.383-3.48ZM598.7,385.809c-.473-3.524,1.966-6.234,5.995-6.776,4.058-.546,7.126,1.424,7.6,4.95s-1.967,6.235-6.025,6.78C602.243,391.3,599.174,389.333,598.7,385.809Zm12.648-1.7c-.379-2.814-3.1-4.65-6.534-4.189-3.406.458-5.543,2.947-5.166,5.76.381,2.844,3.1,4.65,6.5,4.193C609.587,389.412,611.73,386.953,611.348,384.11Z" transform="translate(-547.269 -136.704)" fill="#fff"/>
      <path id="패스_24" data-name="패스 24" d="M547.294,385.357l20.457,4.52-.193.875-9.864-2.18-.683,3.094-.963-.213.683-3.094-9.631-2.128Zm.98-11.506.194-.876,23.258,5.139-.193.876Zm9.455,12.341c-5.049-1.114-7.677-3.073-7.136-5.524.536-2.422,3.745-3.091,8.794-1.975,5.107,1.129,7.734,3.087,7.2,5.509C566.045,386.652,562.836,387.322,557.73,386.192Zm.18-.816c4.29.948,7.279.444,7.684-1.393.4-1.81-2.1-3.525-6.387-4.474-4.233-.934-7.221-.431-7.62,1.377C551.18,382.725,553.679,384.442,557.91,385.376ZM552.76,367.4c.573-2.6,4.028-3.272,9.574-2.048s8.392,3.294,7.819,5.891c-.56,2.539-4.015,3.214-9.56,1.989S552.2,369.943,552.76,367.4Zm.992.22c-.425,1.924,2.352,3.763,7.021,4.794s7.962.535,8.388-1.391c.439-1.983-2.344-3.793-7.014-4.824S554.191,365.639,553.752,367.624Z" transform="translate(-547.1 -136.691)" fill="#fff"/>
    </g>
  </g>
</svg>
