<svg width="102" height="45" viewBox="0 0 102 45" fill="none" xmlns="http://www.w3.org/2000/svg">
<path d="M22.3826 45C34.7339 45 44.7653 34.9378 44.7653 22.505C44.7653 10.0715 34.7339 0 22.3826 0C10.0123 0 0 10.0715 0 22.505C0 34.9378 10.0123 45 22.3826 45Z" fill="#A50034"/>
<path d="M21.4819 12.6286V32.3714H27.7207V30.5962H23.2801V12.6286H21.4819Z" fill="white"/>
<path d="M15.2354 18.0154C16.7197 18.0154 17.9161 16.8012 17.9161 15.3185C17.9161 13.8346 16.7197 12.6158 15.2354 12.6158C13.7511 12.6158 12.5547 13.8346 12.5547 15.3185C12.5547 16.8024 13.7511 18.0154 15.2354 18.0154Z" fill="white"/>
<path d="M23.2796 3.67276C23.0457 3.66111 22.6009 3.64655 22.3884 3.64655C12.057 3.64655 3.64893 12.1083 3.64893 22.4956C3.64893 27.541 5.59763 32.27 9.12732 35.8263C12.6715 39.3744 17.3744 41.3348 22.3884 41.3348C27.3832 41.3348 32.085 39.3744 35.6228 35.8263C39.1612 32.27 41.1191 27.541 41.1191 22.4956V21.6573H40.3611H27.7382V23.3923H39.3343C39.3343 23.4301 39.3343 23.6142 39.3262 23.662C38.7367 32.5421 31.3646 39.5754 22.3884 39.5754C17.8447 39.5754 13.5842 37.7978 10.3776 34.5696C7.16066 31.3548 5.388 27.072 5.388 22.4951C5.388 17.9443 7.16066 13.6394 10.3776 10.4147C13.5842 7.19288 17.8447 5.41534 22.3884 5.41534C22.5841 5.41534 23.0602 5.41534 23.2796 5.42699V3.67276Z" fill="white"/>
<path d="M61.5984 7.57506H54.8726V36.8674H75.5306V31.1654H61.5984V7.57506ZM90.3263 25.7046H95.8041V30.8263C94.7942 31.2132 92.8246 31.5989 90.9506 31.5989C84.8972 31.5989 82.8807 28.5058 82.8807 22.2236C82.8807 16.2326 84.801 12.7003 90.8545 12.7003C94.2185 12.7003 96.14 13.7641 97.7233 15.7945L101.905 11.9266C99.3581 8.25613 94.8891 7.14452 90.7108 7.14452C81.2922 7.14452 76.3448 12.3157 76.3448 22.1746C76.3448 31.9857 80.8127 37.302 90.6634 37.302C95.1787 37.302 99.599 36.1426 102 34.4513V20.2415H90.3263V25.7046Z" fill="white"/>
</svg>
