<svg xmlns="http://www.w3.org/2000/svg" xmlns:xlink="http://www.w3.org/1999/xlink" width="151.397" height="33.708" viewBox="0 0 151.397 33.708">
  <defs>
    <radialGradient id="radial-gradient" cx="0.75" cy="0.3" r="1.033" gradientTransform="translate(0.006) scale(0.987 1)" gradientUnits="objectBoundingBox">
      <stop offset="0" stop-color="#008ed2"/>
      <stop offset="0.66" stop-color="#00398f"/>
      <stop offset="1" stop-color="#0072c0"/>
    </radialGradient>
    <radialGradient id="radial-gradient-2" cx="0.77" cy="0.58" r="0.951" gradientTransform="translate(-0.01) scale(1.021 1)" gradientUnits="objectBoundingBox">
      <stop offset="0" stop-color="#b9e6fb"/>
      <stop offset="0.63" stop-color="#00b8eb"/>
      <stop offset="1" stop-color="#88d5f8"/>
    </radialGradient>
  </defs>
  <g id="logo_w" transform="translate(-198.014 -352.595)">
    <g id="그룹_2" data-name="그룹 2" transform="translate(198.014 352.595)">
      <path id="패스_1" data-name="패스 1" d="M226.761,357.684a16.853,16.853,0,1,1-19.8-2.943l2.329-.173S218.179,349.956,226.761,357.684Z" transform="translate(-198.014 -352.771)" fill-rule="evenodd" fill="url(#radial-gradient)"/>
      <path id="패스_2" data-name="패스 2" d="M203.631,372.532a11.846,11.846,0,0,0,10.34,1.846,11.432,11.432,0,0,0,7.007-6.1c1.34-3.115.622-7.137-2.968-8.29-2.2-.707-4.875.308-6.6,1.685-1.428,1.137-2.946,2.851-5.021,2.106-1.623-.583-2.22-2.619-.83-5.05,1.379-2.412,4.328-4.753,9.027-5.08a17.367,17.367,0,0,1,12.238,3.861,16.864,16.864,0,0,0-19.807-2.943,13.548,13.548,0,0,0-5.757,6.057c-1.839,3.936-1.436,8.98,2.375,11.911ZM200.223,361.2c-2.277,5.346-.6,11.923,4.669,14.908,4.81,2.725,11.487,2.39,15.673-1.667,1.347-1.307,2.376-3.281,4.032-4.13a2.582,2.582,0,0,1,2.547.011c1.324.885,1.367,2.508.885,4.025a10.751,10.751,0,0,1-2.643,4.113,15.575,15.575,0,0,1-7.178,4.271,16.923,16.923,0,0,1-14.325-2.579,14.448,14.448,0,0,1-4.762-16.573A16.756,16.756,0,0,1,200.223,361.2Z" transform="translate(-198.071 -352.595)" fill-rule="evenodd" fill="url(#radial-gradient-2)"/>
    </g>
    <path id="패스_3" data-name="패스 3" d="M358.082,361.813v-1.183l-8.351.006q0,3.129,0,6.257a1.434,1.434,0,0,0,.476,1.141,1.919,1.919,0,0,0,1.308.414l7.227,0v-1.2l-6.472,0,0-5.428,5.813,0Zm-70.663,9.464a1.063,1.063,0,0,0-1.093-1.023l-3.538,0,0-2.824,6.7,0v-1.184l-2.867,0a3.212,3.212,0,0,0,.387-.609,4.466,4.466,0,0,0,.233-.677,6.789,6.789,0,0,0,.174-.7,4.175,4.175,0,0,0,.057-.684q0-1.163,0-2.326a1.064,1.064,0,0,0-1.093-1.022l-10.746.009v1.184l9.281-.008v2.232a10.564,10.564,0,0,1-.086,1.353,5.092,5.092,0,0,1-.319,1.252l-10.831.008v1.183l6.568,0,0,2.824-4.689,0v1.183l9.281-.007,0,4.3,2.577,0q0-2.228,0-4.455Zm65.78-.752h-1.447q0,1.775,0,3.551a1.438,1.438,0,0,0,.505,1.175,2.008,2.008,0,0,0,1.318.413l9.9-.006v-1.183l-9.184.006,0-2.934a1.063,1.063,0,0,0-1.092-1.023Zm8.807-10.44a1.062,1.062,0,0,1,1.093,1.022l0,2.342,2.849,0v1.183l-2.849,0,.006,6.883-2.539,0q0-5.716-.009-11.431Zm-21.228.016H339.42q.006,7.788.012,15.575l2.383,0-.007-10.078h1.744l.007,10.078h2.384q-.005-7.306-.011-14.613a1,1,0,0,0-1.026-.961h-1.358q0,2.155,0,4.311h-1.744q0-1.675,0-3.351a1,1,0,0,0-1.027-.96Zm-16.59.012h-1.457q0,4.211.006,8.421l2.558,0v-2.351l2.848,0V365h-2.848v-1.367l2.848,0v-1.184l-2.848,0v-1.3a1.07,1.07,0,0,0-1.1-1.03Zm-21.025.016h-1.357q.006,7.788.012,15.574H304.2l-.007-9.182h1.453l.007,9.182h2.383q-.005-7.306-.011-14.613a1,1,0,0,0-1.026-.96h-1.358q0,2.6,0,5.208h-1.453q0-2.124,0-4.248a1,1,0,0,0-1.027-.96ZM259.395,370.9h-1.446q0,1.624,0,3.247a1.444,1.444,0,0,0,.495,1.174,1.963,1.963,0,0,0,1.308.414l9.687-.008v-1.183l-8.951.007,0-2.63a1.063,1.063,0,0,0-1.093-1.023Zm8.595-10.744a1.063,1.063,0,0,1,1.093,1.022q0,1.315,0,2.63l2.848,0v1.2l-2.848,0,0,6.6-2.538,0-.009-11.449Zm62.636,1v1.421l2.789,0a12.465,12.465,0,0,1-.491,3.737,11.619,11.619,0,0,1-.8,2.047,8.746,8.746,0,0,1-1.017,1.582,9.826,9.826,0,0,1-1.094,1.142l1.475,1.436a4.866,4.866,0,0,0,.987-.863,11.225,11.225,0,0,0,.909-1.168,10.062,10.062,0,0,0,.745-1.286,11.377,11.377,0,0,0,.513-1.218,12.292,12.292,0,0,0,1.474,1.825q.853.88,1.978,1.893l.909-1.2c-.427-.382-.815-.741-1.164-1.073s-.67-.675-.969-1.022a10.286,10.286,0,0,1-.834-1.1,12.181,12.181,0,0,1-.757-1.352,10.564,10.564,0,0,0,.27-1.539q.1-.878.154-1.81h2.577v-1.454l-7.653,0Zm-9.962,7.905a5.453,5.453,0,0,0-1.762.271,4.616,4.616,0,0,0-1.433.8,3.768,3.768,0,0,0-1.007,1.176,3.053,3.053,0,0,0,0,2.756,3.771,3.771,0,0,0,1.009,1.156,4.515,4.515,0,0,0,1.436.8,6.015,6.015,0,0,0,3.516,0,4.421,4.421,0,0,0,1.443-.8,3.9,3.9,0,0,0,1-1.159,2.97,2.97,0,0,0,0-2.756,3.918,3.918,0,0,0-1-1.174,4.487,4.487,0,0,0-1.444-.794,5.469,5.469,0,0,0-1.754-.269Zm0,1.183a1.55,1.55,0,0,1,.834.227,2.285,2.285,0,0,1,.64.583,2.887,2.887,0,0,1,.4.787,2.594,2.594,0,0,1-.415,2.459,2.038,2.038,0,0,1-.63.551,1.658,1.658,0,0,1-.823.212,1.709,1.709,0,0,1-.833-.2,2.071,2.071,0,0,1-.639-.541,2.581,2.581,0,0,1-.4-.77,2.719,2.719,0,0,1-.147-.871,2.845,2.845,0,0,1,.136-.854,2.67,2.67,0,0,1,.387-.786,2.151,2.151,0,0,1,.639-.576,1.628,1.628,0,0,1,.851-.22Zm-9.439-5.912a3.381,3.381,0,0,1,.337-1.5,3.741,3.741,0,0,1,1.036-1.252,5.044,5.044,0,0,1,1.511-.864,5.835,5.835,0,0,1,3.614,0,4.948,4.948,0,0,1,1.521.862,3.751,3.751,0,0,1,1.018,1.251,3.5,3.5,0,0,1,0,3.009,3.775,3.775,0,0,1-1.017,1.252,4.917,4.917,0,0,1-1.519.863,5.82,5.82,0,0,1-3.614,0,5.051,5.051,0,0,1-1.512-.861,3.745,3.745,0,0,1-1.037-1.25,3.376,3.376,0,0,1-.34-1.506Zm6.839-.021a3.177,3.177,0,0,0-.155-.973,3.306,3.306,0,0,0-.427-.87,2.11,2.11,0,0,0-.679-.625,1.745,1.745,0,0,0-.891-.236,1.774,1.774,0,0,0-.921.237,2.2,2.2,0,0,0-.667.627,2.673,2.673,0,0,0-.406.863,3.645,3.645,0,0,0-.136.98,3.744,3.744,0,0,0,.136,1.014,2.713,2.713,0,0,0,.408.863,2.191,2.191,0,0,0,.668.625,1.774,1.774,0,0,0,.921.236,1.747,1.747,0,0,0,.891-.237,2.117,2.117,0,0,0,.677-.627,3.278,3.278,0,0,0,.426-.87,3.212,3.212,0,0,0,.154-1.007Zm-23.165-2.74,3.526,0v-1.1l-3.526,0v1.1Zm1.765,3.126a1.262,1.262,0,0,1,.728.219,1.961,1.961,0,0,1,.533.558,2.959,2.959,0,0,1,.339.735,2.733,2.733,0,0,1,.126.786,2.963,2.963,0,0,1-.116.8,2.693,2.693,0,0,1-.348.754,1.879,1.879,0,0,1-.532.549,1.292,1.292,0,0,1-.727.212,1.355,1.355,0,0,1-.765-.211,1.941,1.941,0,0,1-.554-.549,2.512,2.512,0,0,1-.319-.744,3.18,3.18,0,0,1-.107-.811,2.919,2.919,0,0,1,.115-.8,2.394,2.394,0,0,1,.348-.735,2.1,2.1,0,0,1,.552-.55,1.288,1.288,0,0,1,.726-.212Zm-4.031-1.975v1.15l2.519,0a5.825,5.825,0,0,0-1.879,1.438,2.661,2.661,0,0,0-.618,1.692,3.039,3.039,0,0,0,.291,1.319,3.554,3.554,0,0,0,.892,1.115,3.956,3.956,0,0,0,1.27.76,4.566,4.566,0,0,0,1.56.253,4.384,4.384,0,0,0,1.55-.256,3.816,3.816,0,0,0,1.24-.761,4.276,4.276,0,0,0,.9-1.108,2.728,2.728,0,0,0,.318-1.328,2.631,2.631,0,0,0-.631-1.69,5.954,5.954,0,0,0-1.871-1.436l2.5,0v-1.149l-8.04.006Zm-34.925-1.629,4.4,0v-1.1l-4.4,0v1.1Zm-2.674.8v1.166h2.5a5.281,5.281,0,0,0-1.414,1.4,2.729,2.729,0,0,0-.464,1.489,2.991,2.991,0,0,0,.3,1.327,3.28,3.28,0,0,0,.94,1.124,4.763,4.763,0,0,0,1.387.769,4.873,4.873,0,0,0,1.618.261,5,5,0,0,0,1.617-.255,4.411,4.411,0,0,0,1.385-.779,3.483,3.483,0,0,0,.929-1.125,2.927,2.927,0,0,0,.309-1.328,2.676,2.676,0,0,0-.486-1.5,5.447,5.447,0,0,0-1.416-1.386l2.538,0v-1.167l-9.745.008Zm4.864,1.671a1.378,1.378,0,0,1,.765.219,2.269,2.269,0,0,1,.591.557,2.912,2.912,0,0,1,.368.761,2.735,2.735,0,0,1,.136.846,2.926,2.926,0,0,1-.126.845,2.618,2.618,0,0,1-.377.778,1.962,1.962,0,0,1-.581.559,1.49,1.49,0,0,1-1.559,0,2.166,2.166,0,0,1-.592-.575,2.964,2.964,0,0,1-.359-.777,2.781,2.781,0,0,1,0-1.658,2.7,2.7,0,0,1,.358-.76,2.165,2.165,0,0,1,.591-.576A1.411,1.411,0,0,1,259.9,363.561Z" transform="translate(-16.54 -2.145)" fill="#fff"/>
    <g id="그룹_3" data-name="그룹 3" transform="translate(240.132 376.912)">
      <path id="패스_4" data-name="패스 4" d="M257.34,386.955h.913v1.918l1.643-1.918h1.122l-1.871,2.1,1.949,2.358H259.9l-1.637-2.071h-.013v2.071h-.913Z" transform="translate(-257.34 -386.879)" fill="#fff"/>
      <path id="패스_5" data-name="패스 5" d="M266.621,386.848a2.309,2.309,0,1,1-2.231,2.294A2.106,2.106,0,0,1,266.621,386.848Zm0,3.911c.932,0,1.278-.811,1.278-1.617,0-.786-.371-1.591-1.278-1.591s-1.279.805-1.279,1.591C265.342,389.948,265.688,390.759,266.621,390.759Z" transform="translate(-259.385 -386.848)" fill="#fff"/>
      <path id="패스_6" data-name="패스 6" d="M272.974,386.955h.985c.978,0,2.145-.032,2.145,1.208a1.028,1.028,0,0,1-.939,1.035v.013c.248.018.391.262.483.459l.731,1.745H275.36l-.547-1.394c-.131-.332-.248-.459-.633-.459h-.293v1.853h-.913Zm.913,1.9h.3c.45,0,.965-.064.965-.62,0-.537-.508-.582-.965-.582h-.3Z" transform="translate(-261.875 -386.879)" fill="#fff"/>
      <path id="패스_7" data-name="패스 7" d="M279.932,386.955h2.687v.7h-1.774v1.1h1.624v.7h-1.624v1.253h1.787v.7h-2.7Z" transform="translate(-263.893 -386.879)" fill="#fff"/>
      <path id="패스_8" data-name="패스 8" d="M287.388,386.955h1.03l1.787,4.461h-1.011l-.391-1.022h-1.846l-.4,1.022h-.946Zm.5.9h-.013l-.659,1.841h1.331Z" transform="translate(-265.541 -386.879)" fill="#fff"/>
      <path id="패스_9" data-name="패스 9" d="M299.852,386.848a2.309,2.309,0,1,1-2.231,2.294A2.1,2.1,0,0,1,299.852,386.848Zm0,3.911c.931,0,1.278-.811,1.278-1.617,0-.786-.371-1.591-1.278-1.591s-1.279.805-1.279,1.591C298.574,389.948,298.919,390.759,299.852,390.759Z" transform="translate(-269.024 -386.848)" fill="#fff"/>
      <path id="패스_10" data-name="패스 10" d="M309.536,391.321a4.685,4.685,0,0,1-1.036.141c-1.474,0-2.5-.723-2.5-2.231a2.237,2.237,0,0,1,2.5-2.383,3.084,3.084,0,0,1,1.031.185l-.065.755a1.907,1.907,0,0,0-.986-.236,1.5,1.5,0,0,0-1.525,1.617,1.483,1.483,0,0,0,1.546,1.592,2.587,2.587,0,0,0,1-.185Z" transform="translate(-271.455 -386.848)" fill="#fff"/>
      <path id="패스_11" data-name="패스 11" d="M313.164,386.955h2.686v.7h-1.773v1.1H315.7v.7h-1.624v1.253h1.788v.7h-2.7Z" transform="translate(-273.533 -386.879)" fill="#fff"/>
      <path id="패스_12" data-name="패스 12" d="M320.619,386.955h1.03l1.787,4.461h-1.01l-.391-1.022h-1.846l-.4,1.022h-.946Zm.5.9h-.013l-.659,1.841h1.33Z" transform="translate(-275.181 -386.879)" fill="#fff"/>
      <path id="패스_13" data-name="패스 13" d="M327.31,386.955h1.122l1.734,3.337h.013v-3.337h.873v4.461h-1.115L328.2,388.08h-.013v3.336h-.874Z" transform="translate(-277.636 -386.879)" fill="#fff"/>
      <path id="패스_14" data-name="패스 14" d="M339.033,386.955h2.531v.7h-1.617v1.1h1.539v.7h-1.539v1.956h-.914Z" transform="translate(-281.036 -386.879)" fill="#fff"/>
      <path id="패스_15" data-name="패스 15" d="M346.78,386.848a2.309,2.309,0,1,1-2.229,2.294A2.106,2.106,0,0,1,346.78,386.848Zm0,3.911c.934,0,1.279-.811,1.279-1.617,0-.786-.371-1.591-1.279-1.591s-1.278.805-1.278,1.591C345.5,389.948,345.849,390.759,346.78,390.759Z" transform="translate(-282.637 -386.848)" fill="#fff"/>
      <path id="패스_16" data-name="패스 16" d="M353.2,386.955h.914v2.576c0,.761.247,1.259.946,1.259s.946-.5.946-1.259v-2.576h.913v2.851c0,1.195-.692,1.687-1.859,1.687S353.2,391,353.2,389.806Z" transform="translate(-285.145 -386.879)" fill="#fff"/>
      <path id="패스_17" data-name="패스 17" d="M361.047,386.955h1.122l1.734,3.337h.013v-3.337h.873v4.461h-1.115l-1.741-3.336h-.013v3.336h-.873Z" transform="translate(-287.422 -386.879)" fill="#fff"/>
      <path id="패스_18" data-name="패스 18" d="M368.978,386.955h1.245c1.4,0,2.628.461,2.628,2.231s-1.233,2.23-2.628,2.23h-1.245Zm.913,3.758h.508a1.528,1.528,0,0,0,0-3.056h-.508Z" transform="translate(-289.722 -386.879)" fill="#fff"/>
      <path id="패스_19" data-name="패스 19" d="M377.957,386.955h1.03l1.787,4.461h-1.01l-.391-1.022h-1.846l-.4,1.022h-.946Zm.5.9h-.013l-.659,1.841h1.33Z" transform="translate(-291.812 -386.879)" fill="#fff"/>
      <path id="패스_20" data-name="패스 20" d="M384.611,387.658h-1.3v-.7h3.522v.7h-1.3v3.758h-.913Z" transform="translate(-293.879 -386.879)" fill="#fff"/>
      <path id="패스_21" data-name="패스 21" d="M390.211,386.955h.914v4.461h-.914Z" transform="translate(-295.881 -386.879)" fill="#fff"/>
      <path id="패스_22" data-name="패스 22" d="M396.03,386.848a2.309,2.309,0,1,1-2.229,2.294A2.106,2.106,0,0,1,396.03,386.848Zm0,3.911c.934,0,1.279-.811,1.279-1.617,0-.786-.371-1.591-1.279-1.591s-1.278.805-1.278,1.591C394.752,389.948,395.1,390.759,396.03,390.759Z" transform="translate(-296.922 -386.848)" fill="#fff"/>
      <path id="패스_23" data-name="패스 23" d="M402.43,386.955h1.122l1.734,3.337h.013v-3.337h.873v4.461h-1.115l-1.742-3.336H403.3v3.336h-.873Z" transform="translate(-299.425 -386.879)" fill="#fff"/>
    </g>
  </g>
</svg>
