<svg xmlns="http://www.w3.org/2000/svg" width="23.398" height="23.385" viewBox="0 0 23.398 23.385">
  <g id="sns_insta" transform="translate(-6.3 -9)">
    <g id="그룹_13" data-name="그룹 13" transform="translate(6.3 9)">
      <path id="SVGID_1_" d="M13.152,9.08a8.412,8.412,0,0,0-2.842.544,5.9,5.9,0,0,0-2.058,1.354A5.612,5.612,0,0,0,6.911,13.05a8.752,8.752,0,0,0-.544,2.842c-.053,1.248-.066,1.647-.066,4.82s.027,3.572.08,4.82a8.258,8.258,0,0,0,.544,2.829,5.825,5.825,0,0,0,1.354,2.072,5.612,5.612,0,0,0,2.072,1.341,8.752,8.752,0,0,0,2.842.544c1.248.053,1.647.066,4.82.066s3.572-.013,4.82-.08a8.412,8.412,0,0,0,2.842-.544,5.825,5.825,0,0,0,2.072-1.354,5.612,5.612,0,0,0,1.341-2.072,8.752,8.752,0,0,0,.544-2.842c.053-1.248.066-1.647.066-4.82s-.013-3.572-.08-4.82a8.412,8.412,0,0,0-.544-2.842,5.825,5.825,0,0,0-1.354-2.072A5.612,5.612,0,0,0,25.648,9.6a8.752,8.752,0,0,0-2.842-.544C21.545,9.013,21.146,9,17.973,9s-3.572.027-4.82.08m.133,21.127a6.484,6.484,0,0,1-2.165-.4A3.905,3.905,0,0,1,8.9,27.591a6.471,6.471,0,0,1-.412-2.165c-.053-1.235-.066-1.607-.08-4.727s0-3.492.053-4.727a6.484,6.484,0,0,1,.4-2.165,3.905,3.905,0,0,1,2.218-2.218,6.837,6.837,0,0,1,2.165-.412c1.235-.053,1.607-.066,4.714-.08s3.492,0,4.727.053a6.484,6.484,0,0,1,2.165.4,3.515,3.515,0,0,1,1.341.876,3.619,3.619,0,0,1,.876,1.341,6.837,6.837,0,0,1,.412,2.165c.053,1.235.066,1.607.08,4.714s0,3.492-.053,4.727a6.667,6.667,0,0,1-.4,2.178,3.905,3.905,0,0,1-2.218,2.218,6.837,6.837,0,0,1-2.165.412c-1.235.053-1.607.066-4.727.08s-3.479,0-4.714-.053M22.82,14.445a1.4,1.4,0,1,0,1.394-1.408,1.406,1.406,0,0,0-1.394,1.408M12,20.7a6,6,0,1,0,5.989-6.016A6,6,0,0,0,12,20.7m2.1,0A3.9,3.9,0,1,1,18,24.59a3.908,3.908,0,0,1-3.9-3.891" transform="translate(-6.3 -9)" fill="rgba(255,255,255,0.8)"/>
    </g>
  </g>
</svg>
