<svg xmlns="http://www.w3.org/2000/svg" width="26.31" height="24.404" viewBox="0 0 26.31 24.404">
  <g id="sns_blog" transform="translate(-623.26 -266.06)">
    <path id="패스_44" data-name="패스 44" d="M650.185,314.51a.906.906,0,1,0,.907.905A.9.9,0,0,0,650.185,314.51Z" transform="translate(-21.184 -39.446)" fill="rgba(255,255,255,0.8)"/>
    <path id="패스_45" data-name="패스 45" d="M698.026,314a.976.976,0,1,0,.976.976A.976.976,0,0,0,698.026,314Z" transform="translate(-60.076 -39.031)" fill="rgba(255,255,255,0.8)"/>
    <path id="패스_46" data-name="패스 46" d="M646.05,266.06H626.78a3.52,3.52,0,0,0-3.52,3.52v11.437a3.52,3.52,0,0,0,3.52,3.52h6.806l2.316,5.455s.16.472.545.472h0c.386,0,.544-.472.544-.472l2.316-5.455h6.744a3.52,3.52,0,0,0,3.52-3.52V269.58A3.52,3.52,0,0,0,646.05,266.06Zm-14.526,10.108a2.179,2.179,0,0,1-2.173,2.15,1.807,1.807,0,0,1-1.308-.554v.377H626.47V271.65c-.006,0-.007,0,0,0v0c.1.015,1.574,0,1.574,0v2.483c.37-.632,1.44-.621,1.44-.621A2.3,2.3,0,0,1,631.525,276.168Zm2.773-2.461v4.445h-1.541v-4.4c0-.6-.743-.766-.743-.766v-1.552A2.132,2.132,0,0,1,634.3,273.708Zm3.652,4.615a2.385,2.385,0,1,1,2.583-2.377A2.487,2.487,0,0,1,637.949,278.322Zm8.441,0a2.2,2.2,0,0,1-2.273,2.258h-.7v-1.463h.422s.965.089.953-1.4c0,0-.188.6-1.541.6a2.031,2.031,0,0,1-1.918-2.009v-.71a2.19,2.19,0,0,1,2.15-2.095,1.569,1.569,0,0,1,1.342.6v-.476h1.563Z" fill="rgba(255,255,255,0.8)"/>
    <path id="패스_47" data-name="패스 47" d="M730.363,314.12a.953.953,0,1,0,.953.953A.954.954,0,0,0,730.363,314.12Z" transform="translate(-86.422 -39.128)" fill="rgba(255,255,255,0.8)"/>
  </g>
</svg>
