<svg xmlns="http://www.w3.org/2000/svg" width="26.861" height="18.803" viewBox="0 0 26.861 18.803">
  <path id="sns_youtube" d="M157.91,236.187a3.365,3.365,0,0,0-2.374-2.374c-2.1-.562-10.495-.562-10.495-.562s-8.4,0-10.495.562a3.367,3.367,0,0,0-2.376,2.374,37.561,37.561,0,0,0,0,12.932,3.362,3.362,0,0,0,2.376,2.374c2.1.561,10.495.561,10.495.561s8.4,0,10.495-.561a3.365,3.365,0,0,0,2.374-2.374,37.561,37.561,0,0,0,0-12.932Zm-15.556,10.495v-8.059l6.978,4.03Z" transform="translate(-131.61 -233.25)" fill="rgba(255,255,255,0.8)"/>
</svg>
